<?xml version="1.0" encoding="UTF-8" standalone="no"?>
<!-- Created with Inkscape (http://www.inkscape.org/) -->

<svg
   xmlns:dc="http://purl.org/dc/elements/1.1/"
   xmlns:cc="http://creativecommons.org/ns#"
   xmlns:rdf="http://www.w3.org/1999/02/22-rdf-syntax-ns#"
   xmlns:svg="http://www.w3.org/2000/svg"
   xmlns="http://www.w3.org/2000/svg"
   xmlns:sodipodi="http://sodipodi.sourceforge.net/DTD/sodipodi-0.dtd"
   xmlns:inkscape="http://www.inkscape.org/namespaces/inkscape"
   id="svg2"
   version="1.1"
   inkscape:version="0.91 r13725"
   xml:space="preserve"
   width="264.96512"
   height="161.7825"
   viewBox="0 0 264.96512 161.7825"
   sodipodi:docname="OAI-shrink.svg"><metadata
     id="metadata8"><rdf:RDF><cc:Work
         rdf:about=""><dc:format>image/svg+xml</dc:format><dc:type
           rdf:resource="http://purl.org/dc/dcmitype/StillImage" /><dc:title></dc:title></cc:Work></rdf:RDF></metadata><defs
     id="defs6"><clipPath
       clipPathUnits="userSpaceOnUse"
       id="clipPath16"><path
         d="m 0,283.46 425.2,0 L 425.2,0 0,0 0,283.46 Z"
         id="path18"
         inkscape:connector-curvature="0" /></clipPath><linearGradient
       x1="0"
       y1="0"
       x2="1"
       y2="0"
       gradientUnits="userSpaceOnUse"
       gradientTransform="matrix(57.274414,0,0,-57.274414,275.2666,122.62598)"
       spreadMethod="pad"
       id="linearGradient180"><stop
         style="stop-opacity:1;stop-color:#2e3092"
         offset="0"
         id="stop182" /><stop
         style="stop-opacity:1;stop-color:#2e3092"
         offset="0.00425532"
         id="stop184" /><stop
         style="stop-opacity:1;stop-color:#0095da"
         offset="1"
         id="stop186" /></linearGradient><linearGradient
       x1="0"
       y1="0"
       x2="1"
       y2="0"
       gradientUnits="userSpaceOnUse"
       gradientTransform="matrix(71.951172,0,0,-71.951172,275.2666,105.66602)"
       spreadMethod="pad"
       id="linearGradient202"><stop
         style="stop-opacity:1;stop-color:#f7931d"
         offset="0"
         id="stop204" /><stop
         style="stop-opacity:1;stop-color:#ffde00"
         offset="1"
         id="stop206" /></linearGradient><linearGradient
       x1="0"
       y1="0"
       x2="1"
       y2="0"
       gradientUnits="userSpaceOnUse"
       gradientTransform="matrix(76.849609,0,0,-76.849609,277.4834,86.68457)"
       spreadMethod="pad"
       id="linearGradient222"><stop
         style="stop-opacity:1;stop-color:#3777bc"
         offset="0"
         id="stop224" /><stop
         style="stop-opacity:1;stop-color:#ec008c"
         offset="1"
         id="stop226" /></linearGradient><clipPath
       clipPathUnits="userSpaceOnUse"
       id="clipPath234"><path
         d="m 0,283.46 425.2,0 L 425.2,0 0,0 0,283.46 Z"
         id="path236"
         inkscape:connector-curvature="0" /></clipPath><clipPath
       clipPathUnits="userSpaceOnUse"
       id="clipPath246"><path
         d="m 70.8677,164.27 84.1653,0 0,-84.1616 -84.1653,0 0,84.1616 z"
         id="path248"
         inkscape:connector-curvature="0" /></clipPath><linearGradient
       x1="0"
       y1="0"
       x2="1"
       y2="0"
       gradientUnits="userSpaceOnUse"
       gradientTransform="matrix(84.165527,0,0,-84.165527,70.867676,122.18945)"
       spreadMethod="pad"
       id="linearGradient254"><stop
         style="stop-opacity:1;stop-color:#2e3092"
         offset="0"
         id="stop256" /><stop
         style="stop-opacity:1;stop-color:#2e3092"
         offset="0.00425532"
         id="stop258" /><stop
         style="stop-opacity:1;stop-color:#0095da"
         offset="1"
         id="stop260" /></linearGradient><clipPath
       clipPathUnits="userSpaceOnUse"
       id="clipPath280"><path
         d="m 136.804,164.27 104.554,0 0,-84.1616 -104.554,0 0,84.1616 z"
         id="path282"
         inkscape:connector-curvature="0" /></clipPath><linearGradient
       x1="0"
       y1="0"
       x2="1"
       y2="0"
       gradientUnits="userSpaceOnUse"
       gradientTransform="matrix(104.55469,0,0,-104.55469,136.80371,122.18945)"
       spreadMethod="pad"
       id="linearGradient288"><stop
         style="stop-opacity:1;stop-color:#f7931d"
         offset="0"
         id="stop290" /><stop
         style="stop-opacity:1;stop-color:#ffde00"
         offset="1"
         id="stop292" /></linearGradient><clipPath
       clipPathUnits="userSpaceOnUse"
       id="clipPath312"><path
         d="m 223.519,201.534 43.321,0 0,-121.2401 -43.321,0 0,121.2401 z"
         id="path314"
         inkscape:connector-curvature="0" /></clipPath><linearGradient
       x1="0"
       y1="0"
       x2="1"
       y2="0"
       gradientUnits="userSpaceOnUse"
       gradientTransform="matrix(43.321289,0,0,-43.321289,223.51855,140.91406)"
       spreadMethod="pad"
       id="linearGradient320"><stop
         style="stop-opacity:1;stop-color:#3777bc"
         offset="0"
         id="stop322" /><stop
         style="stop-opacity:1;stop-color:#ec008c"
         offset="1"
         id="stop324" /></linearGradient></defs><sodipodi:namedview
     pagecolor="#ffffff"
     bordercolor="#666666"
     borderopacity="1"
     objecttolerance="10"
     gridtolerance="10"
     guidetolerance="10"
     inkscape:pageopacity="1"
     inkscape:pageshadow="2"
     inkscape:window-width="1309"
     inkscape:window-height="744"
     id="namedview4"
     showgrid="false"
     fit-margin-top="5"
     fit-margin-left="10"
     fit-margin-right="10"
     fit-margin-bottom="5"
     inkscape:zoom="1.8838885"
     inkscape:cx="115.82025"
     inkscape:cy="74.514018"
     inkscape:window-x="57"
     inkscape:window-y="24"
     inkscape:window-maximized="1"
     inkscape:current-layer="g10" /><g
     id="g10"
     inkscape:groupmode="layer"
     inkscape:label="marca_oai_degrade"
     transform="matrix(1.25,0,0,-1.25,-78.584875,256.91763)"><path
       inkscape:connector-curvature="0"
       id="path154"
       style="fill:#ffffff;fill-opacity:1;fill-rule:nonzero;stroke:none"
       d="m 78.6426,82.2705 c -0.776,-0.805 -1.726,-1.205 -2.824,-1.205 -1.126,0 -2.103,0.4 -2.878,1.205 -0.802,0.773 -1.202,1.75 -1.202,2.875 0,1.127 0.4,2.096 1.202,2.875 0.775,0.777 1.752,1.174 2.878,1.174 1.098,0 2.048,-0.397 2.824,-1.174 0.777,-0.799 1.176,-1.748 1.176,-2.875 0,-1.125 -0.399,-2.074 -1.176,-2.875 m -2.852,7.725 c -1.326,0 -2.475,-0.471 -3.424,-1.424 -0.977,-0.946 -1.452,-2.1 -1.452,-3.426 0,-1.326 0.475,-2.479 1.452,-3.428 0.949,-0.949 2.098,-1.424 3.424,-1.424 1.326,0 2.479,0.475 3.425,1.424 0.926,0.949 1.405,2.102 1.405,3.428 0,1.326 -0.479,2.48 -1.429,3.426 -0.949,0.953 -2.075,1.424 -3.401,1.424" /><path
       inkscape:connector-curvature="0"
       id="path158"
       style="fill:#ffffff;fill-opacity:1;fill-rule:nonzero;stroke:none"
       d="m 76.2656,85.0947 -1.699,0 0,1.852 1.699,0 c 0.675,0 1.004,-0.303 1.004,-0.926 0,-0.623 -0.329,-0.926 -1.004,-0.926 m 1.777,0.926 c 0,1.023 -0.651,1.648 -1.75,1.648 l -2.2,0 c -0.177,0 -0.277,-0.076 -0.277,-0.248 l 0,-4.629 c 0,-0.125 0.077,-0.172 0.2,-0.172 l 0.352,0 c 0.125,0 0.199,0.047 0.199,0.172 l 0,1.629 1.526,0 0.926,-1.629 c 0.075,-0.125 0.173,-0.172 0.321,-0.172 l 0.354,0 c 0.223,0 0.298,0.102 0.173,0.27 l -0.95,1.605 c 0.751,0.176 1.126,0.702 1.126,1.526" /><path
       inkscape:connector-curvature="0"
       id="path162"
       style="fill:#ffffff;fill-opacity:1;fill-rule:nonzero;stroke:none"
       d="m 245.1787,168.6841 c 9.073,0 16.425,7.352 16.425,16.42 0,9.07 -7.352,16.43 -16.425,16.43 -9.069,0 -16.421,-7.36 -16.421,-16.43 0,-9.068 7.352,-16.42 16.421,-16.42" /><path
       inkscape:connector-curvature="0"
       id="path166"
       style="fill:#ffffff;fill-opacity:1;fill-rule:nonzero;stroke:none"
       d="m 178.8799,105.7021 c -9.069,0 -16.425,7.354 -16.425,16.428 0,9.074 7.356,16.427 16.425,16.427 9.073,0 16.425,-7.353 16.425,-16.427 0,-9.074 -7.352,-16.428 -16.425,-16.428 m -65.931,0.059 c -9.069,0 -16.426,7.355 -16.426,16.427 0,9.075 7.357,16.424 16.426,16.424 9.074,0 16.429,-7.349 16.429,-16.424 0,-9.072 -7.355,-16.427 -16.429,-16.427 m 143.001,58.321 -21.539,0 c -0.675,0 -1.333,-0.069 -1.973,-0.187 -0.642,0.118 -1.299,0.187 -1.974,0.187 l -21.536,0 c -3.958,0 -7.422,-2.111 -9.328,-5.264 -6.117,3.464 -13.18,5.452 -20.712,5.452 -13.36,0 -25.259,-6.235 -32.969,-15.946 -7.709,9.711 -19.607,15.946 -32.97,15.946 -23.244,0 -42.081,-18.844 -42.081,-42.082 0,-23.246 18.837,-42.08 42.081,-42.08 13.363,0 25.261,6.233 32.97,15.942 7.71,-9.709 19.609,-15.942 32.969,-15.942 7.532,0 14.595,1.987 20.712,5.449 1.906,-3.158 5.37,-5.263 9.328,-5.263 l 21.536,0 c 0.675,0 1.332,0.07 1.974,0.187 0.64,-0.117 1.298,-0.187 1.973,-0.187 l 21.539,0 c 6.014,0 10.89,4.875 10.89,10.892 l 0,62.01 c 0,6.013 -4.876,10.886 -10.89,10.886" /><g
       id="g230"><g
         id="g232"
         clip-path="url(#clipPath234)"><g
           id="g238"
           transform="translate(74.5669,85.0947)"><path
             d="m 0,0 1.699,0 c 0.675,0 1.004,0.303 1.004,0.926 0,0.623 -0.329,0.926 -1.004,0.926 L 0,1.852 0,0 Z m 1.726,2.574 c 1.099,0 1.75,-0.625 1.75,-1.648 0,-0.824 -0.375,-1.35 -1.126,-1.526 l 0.949,-1.605 c 0.126,-0.168 0.051,-0.27 -0.173,-0.27 l -0.353,0 c -0.148,0 -0.247,0.047 -0.321,0.172 l -0.926,1.629 -1.526,0 0,-1.629 c 0,-0.125 -0.075,-0.172 -0.2,-0.172 l -0.351,0 c -0.123,0 -0.2,0.047 -0.2,0.172 l 0,4.629 c 0,0.172 0.1,0.248 0.276,0.248 l 2.201,0 z M -2.828,0.051 c 0,-1.125 0.4,-2.102 1.202,-2.875 0.775,-0.805 1.751,-1.205 2.877,-1.205 1.099,0 2.048,0.4 2.825,1.205 0.777,0.801 1.176,1.75 1.176,2.875 0,1.127 -0.399,2.076 -1.176,2.875 C 3.299,3.703 2.35,4.1 1.251,4.1 0.125,4.1 -0.851,3.703 -1.626,2.926 -2.428,2.146 -2.828,1.178 -2.828,0.051 m -0.824,0 c 0,1.326 0.475,2.48 1.451,3.426 C -1.251,4.43 -0.102,4.9 1.224,4.9 2.55,4.9 3.676,4.43 4.625,3.477 5.575,2.531 6.053,1.377 6.053,0.051 6.053,-1.275 5.575,-2.428 4.649,-3.377 3.703,-4.326 2.55,-4.801 1.224,-4.801 c -1.326,0 -2.475,0.475 -3.425,1.424 -0.976,0.949 -1.451,2.102 -1.451,3.428"
             style="fill:#2e3092;fill-opacity:1;fill-rule:nonzero;stroke:none"
             id="path240"
             inkscape:connector-curvature="0" /></g><g
           id="g242"><g
             id="g244" /><g
             id="g262"><g
               clip-path="url(#clipPath246)"
               id="g264"
               style="opacity:0.80000299"><g
                 id="g266"><g
                   id="g268"><g
                     id="g270"><g
                       id="g272"><path
                         d="m 112.949,105.761 c -9.069,0 -16.426,7.355 -16.426,16.427 0,9.075 7.357,16.424 16.426,16.424 9.074,0 16.429,-7.349 16.429,-16.424 0,-9.072 -7.355,-16.427 -16.429,-16.427 m 0,58.509 c -23.244,0 -42.081,-18.844 -42.081,-42.082 0,-23.246 18.837,-42.08 42.081,-42.08 23.243,0 42.084,18.834 42.084,42.08 0,23.238 -18.841,42.082 -42.084,42.082"
                         style="fill:url(#linearGradient254);stroke:none"
                         id="path274"
                         inkscape:connector-curvature="0" /></g></g></g></g></g></g></g><g
           id="g276"><g
             id="g278" /><g
             id="g294"><g
               clip-path="url(#clipPath280)"
               id="g296"
               style="opacity:0.80000299"><g
                 id="g298"><g
                   id="g300"><g
                     id="g302"><g
                       id="g304"><path
                         d="m 178.88,105.702 c -9.069,0 -16.425,7.354 -16.425,16.428 0,9.074 7.356,16.428 16.425,16.428 9.073,0 16.425,-7.354 16.425,-16.428 0,-9.074 -7.352,-16.428 -16.425,-16.428 m 51.584,58.381 -21.536,0 c -3.958,0 -7.422,-2.112 -9.328,-5.265 -6.118,3.464 -13.181,5.452 -20.712,5.452 -23.239,0 -42.084,-18.844 -42.084,-42.082 0,-23.246 18.845,-42.08 42.084,-42.08 7.531,0 14.594,1.987 20.712,5.45 1.906,-3.159 5.37,-5.264 9.328,-5.264 l 21.536,0 c 6.014,0 10.894,4.875 10.894,10.893 l 0,62.009 c 0,6.013 -4.88,10.887 -10.894,10.887"
                         style="fill:url(#linearGradient288);stroke:none"
                         id="path306"
                         inkscape:connector-curvature="0" /></g></g></g></g></g></g></g><g
           id="g308"><g
             id="g310" /><g
             id="g326"><g
               clip-path="url(#clipPath312)"
               id="g328"
               style="opacity:0.80000299"><g
                 id="g330"><g
                   id="g332"><g
                     id="g334"><g
                       id="g336"><path
                         d="m 245.179,168.684 c 9.073,0 16.425,7.352 16.425,16.42 0,9.07 -7.352,16.43 -16.425,16.43 -9.07,0 -16.421,-7.36 -16.421,-16.43 0,-9.068 7.351,-16.42 16.421,-16.42 M 266.84,91.187 c 0,-6.018 -4.876,-10.893 -10.89,-10.893 l -21.539,0 c -6.017,0 -10.892,4.875 -10.892,10.893 l 0,62.009 c 0,6.013 4.875,10.887 10.892,10.887 l 21.539,0 c 6.014,0 10.89,-4.874 10.89,-10.887 l 0,-62.009 z"
                         style="fill:url(#linearGradient320);stroke:none"
                         id="path338"
                         inkscape:connector-curvature="0" /></g></g></g></g></g></g></g></g></g></g></svg>