<svg id="OaiLogo" xmlns="http://www.w3.org/2000/svg" viewBox="0 0 374.33176 171.7825">
  <defs>
    <clipPath id="a">
      <path d="M0 283.46h425.2V0H0v283.46z"/>
    </clipPath>
    <linearGradient x2="1" gradientUnits="userSpaceOnUse" gradientTransform="matrix(57.27 0 0 -57.27 275.27 122.63)" id="b">
      <stop offset="0" stop-color="#2e3092"/>
      <stop offset=".00425532" stop-color="#2e3092"/>
      <stop offset="1" stop-color="#0095da"/>
    </linearGradient>
    <linearGradient x2="1" gradientUnits="userSpaceOnUse" gradientTransform="matrix(71.95 0 0 -71.95 275.27 105.67)" id="c">
      <stop offset="0" stop-color="#f7931d"/>
      <stop offset="1" stop-color="#ffde00"/>
    </linearGradient>
    <linearGradient x2="1" gradientUnits="userSpaceOnUse" gradientTransform="matrix(76.85 0 0 -76.85 277.48 86.69)" id="d">
      <stop offset="0" stop-color="#3777bc"/>
      <stop offset="1" stop-color="#ec008c"/>
    </linearGradient>
    <clipPath id="e">
      <path d="M0 283.46h425.2V0H0v283.46z"/>
    </clipPath>
    <clipPath id="f">
      <path d="M70.8677 164.27h84.1653V80.1084H70.8677V164.27z"/>
    </clipPath>
    <linearGradient x2="1" gradientUnits="userSpaceOnUse" gradientTransform="matrix(84.17 0 0 -84.17 70.87 122.19)" id="g">
      <stop offset="0" stop-color="#2e3092"/>
      <stop offset=".00425532" stop-color="#2e3092"/>
      <stop offset="1" stop-color="#0095da"/>
    </linearGradient>
    <clipPath id="h">
      <path d="M136.804 164.27h104.554V80.1084H136.804V164.27z"/>
    </clipPath>
    <linearGradient x2="1" gradientUnits="userSpaceOnUse" gradientTransform="matrix(104.55 0 0 -104.55 136.8 122.19)" id="i">
      <stop offset="0" stop-color="#f7931d"/>
      <stop offset="1" stop-color="#ffde00"/>
    </linearGradient>
    <clipPath id="j">
      <path d="M223.519 201.534h43.321V80.2939h-43.321V201.534z"/>
    </clipPath>
    <linearGradient x2="1" gradientUnits="userSpaceOnUse" gradientTransform="matrix(43.32 0 0 -43.32 223.52 140.91)" id="k">
      <stop offset="0" stop-color="#3777bc"/>
      <stop offset="1" stop-color="#ec008c"/>
    </linearGradient>
  </defs>
  <g clip-path="url(#a)" transform="matrix(1.25 0 0 -1.25 -78.58 261.92)">
    <path d="M298.1172 123.9971c0 1.727.915 2.59 2.729 2.59.79 0 1.492-.111 2.104-.342.302-.121.341-.18.341-.463v-5.978c-.918-.35-1.817-.526-2.695-.526-1.652 0-2.479.809-2.479 2.424v2.295zm2.334-5.834c.918 0 1.867.182 2.84.543v-1.119c0-1.809-.883-2.731-2.624-2.731-1.13 0-1.958.487-2.478 1.44-.128.201-.305.252-.519.127l-.397-.197c-.233-.125-.286-.309-.126-.542.699-1.275 1.885-1.921 3.555-1.921 2.533 0 3.789 1.295 3.789 3.879v8.533c0 .592-.105.717-.683.988-.858.357-1.867.537-3.032.537-2.587 0-3.879-1.224-3.879-3.68v-2.353c0-2.33 1.184-3.504 3.554-3.504M293.4482 129.2803h.106c.506 0 .667.162.667.664v.129c0 .498-.161.664-.667.664h-.106c-.502 0-.662-.166-.662-.664v-.129c0-.502.16-.664.662-.664M286.2627 118.2002h.572c.216 0 .323.105.323.32v7.227c0 .226.109.377.305.463.683.25 1.475.377 2.373.377h.593c.213 0 .321.109.321.32v.471c0 .217-.108.322-.321.322h-.558c-1.258-.02-2.334-.215-3.252-.557-.521-.236-.682-.447-.682-1.004v-7.619c0-.215.107-.32.326-.32M276.4687 124.3936c0 1.369 1.062 2.213 2.729 2.213 1.706 0 2.75-.844 2.75-2.213v-3.158c0-1.365-1.044-2.194-2.75-2.194-1.652 0-2.729.829-2.729 2.194v3.158zm2.729-6.445c2.461 0 3.969 1.22 3.969 3.287v3.158c0 2.066-1.508 3.307-3.969 3.307-2.441 0-3.931-1.241-3.931-3.307v-3.158c0-2.028 1.49-3.287 3.931-3.287M293.79 127.4287h-.576c-.213 0-.322-.105-.322-.32v-8.588c0-.215.109-.321.322-.321h.576c.216 0 .324.106.324.321v8.588c0 .215-.108.32-.324.32M327.4951 119.7646c0-.346-.054-.396-.34-.521-.541-.202-1.26-.288-2.174-.288-1.992 0-2.548.573-2.548 1.793 0 1.241.697 1.762 2.584 1.762.573 0 1.401-.055 2.478-.162v-2.584zm-2.353 3.75c-2.855 0-3.95-.754-3.95-2.781 0-.953.268-1.653.824-2.104.557-.467 1.563-.681 3.052-.681 1.279 0 2.266.16 2.986.466.502.215.643.397.643 1.024v4.707c0 2.17-.934 3.555-3.59 3.555-1.741 0-2.946-.627-3.61-1.887-.108-.233-.053-.377.178-.467l.431-.18c.161-.088.327-.035.452.145.482.879 1.328 1.31 2.51 1.31 1.817 0 2.427-.898 2.427-2.457v-.826c-1.077.121-1.865.176-2.353.176M331.6592 118.2002h.557c.269 0 .325.09.325.32v12.649c0 .23-.056.32-.325.32h-.557c-.232 0-.322-.09-.322-.32v-12.649c0-.23.09-.32.322-.32M311.4229 118.2002h.572c.217 0 .326.105.326.32v7.227c0 .211.09.353.267.443.737.27 1.546.397 2.39.397 1.673 0 2.515-.805 2.515-2.442v-5.625c0-.23.091-.32.326-.32h.553c.22 0 .326.105.326.32v5.66c0 2.356-1.185 3.52-3.576 3.52-1.239 0-2.353-.195-3.342-.611-.557-.233-.682-.428-.682-.989v-7.58c0-.215.109-.32.325-.32M307.7236 127.4287h-.576c-.212 0-.322-.105-.322-.32v-8.588c0-.215.11-.321.322-.321h.576c.216 0 .322.106.322.321v8.588c0 .215-.106.32-.322.32M307.3828 129.2803h.109c.502 0 .663.162.663.664v.129c0 .498-.161.664-.663.664h-.109c-.503 0-.663-.166-.663-.664v-.129c0-.502.16-.664.663-.664M334.0244 99.1221c2.027 0 3.303.84 3.859 2.512.091.234.016.377-.214.47l-.467.141c-.235.055-.377-.012-.467-.215-.377-1.236-1.275-1.847-2.676-1.847-1.726 0-2.68.918-2.68 2.439v2.75c0 1.521.938 2.424 2.68 2.424 1.506 0 2.279-.537 2.655-1.758.091-.219.236-.289.452-.219l.466.16c.216.094.287.237.216.471-.486 1.617-1.741 2.42-3.754 2.42-2.585 0-3.915-1.309-3.915-3.533v-2.68c0-2.224 1.33-3.535 3.845-3.535M310.999 99.3701h.577c.216 0 .321.109.321.326v7.221c0 .213.09.357.271.447.737.272 1.546.397 2.39.397 1.672 0 2.515-.805 2.515-2.444v-5.621c0-.236.091-.326.322-.326h.557c.216 0 .326.109.326.326v5.656c0 2.358-1.189 3.518-3.576 3.518-1.239 0-2.353-.195-3.342-.607-.556-.231-.682-.432-.682-.989v-7.578c0-.217.106-.326.321-.326M302.3027 110.04c-.165-.176-.11-.268.161-.268h.447c.215 0 .376.051.504.174l1.704 1.459 1.691-1.459c.126-.123.287-.174.521-.174h.483c.271 0 .326.092.161.268l-2.153 1.887c-.197.195-.397.287-.592.287h-.146c-.305 0-.357-.016-.628-.287l-2.153-1.887zM328.5791 111.2451c0 .502-.16.662-.663.662h-.106c-.505 0-.667-.16-.667-.662v-.127c0-.506.162-.666.667-.666h.106c.503 0 .663.16.663.666v.127zM328.1494 108.6006h-.574c-.216 0-.322-.105-.322-.322v-8.582c0-.217.106-.326.322-.326h.574c.218 0 .324.109.324.326v8.582c0 .217-.106.322-.324.322M299.7529 100.2686c-1.004 0-1.687.164-2.03.506-.359.326-.54 1.004-.54 2.043v4.676h2.605c.216 0 .321.107.321.318v.467c0 .217-.105.322-.321.322h-2.605v1.84c0 .23-.051.316-.322.316h-.556c-.216 0-.323-.105-.323-.316v-1.84h-1.708c-.213 0-.323-.105-.323-.322v-.467c0-.211.11-.318.323-.318h1.708v-4.711c0-1.416.288-2.385.844-2.907.558-.541 1.527-.773 2.927-.753.231 0 .321.087.321.322v.482c0 .237-.105.342-.321.342M325.1904 108.6006h-2.605v1.84c0 .23-.055.316-.326.316h-.555c-.215 0-.324-.105-.324-.316v-1.84h-1.706c-.215 0-.322-.105-.322-.322v-.467c0-.211.107-.318.322-.318h1.706v-4.711c0-1.416.287-2.385.844-2.907.557-.541 1.528-.773 2.927-.754.234 0 .325.088.325.323v.482c0 .236-.108.342-.325.342-1.005 0-1.688.164-2.029.506-.357.326-.537 1.004-.537 2.043v4.676h2.605c.215 0 .321.107.321.318v.467c0 .217-.106.322-.321.322M307.9043 104.5986h-5.551v.629c0 1.635.973 2.603 2.766 2.603 1.816 0 2.785-.968 2.785-2.603v-.629zm-2.785 4.271c-2.585 0-3.966-1.4-3.966-3.789v-2.334c0-2.24 1.291-3.625 3.895-3.625 1.851 0 3.127.649 3.844 1.944.146.23.107.39-.126.517l-.376.196c-.2.109-.376.074-.521-.125-.558-.985-1.491-1.491-2.821-1.491-1.742 0-2.695.903-2.695 2.459v1.043h6.214c.36 0 .541.163.541.502v.989c0 2.244-1.385 3.714-3.989 3.714M345.999 102.4053c0-1.363-1.044-2.188-2.75-2.188-1.652 0-2.729.825-2.729 2.188v3.158c0 1.369 1.061 2.213 2.729 2.213 1.706 0 2.75-.844 2.75-2.213v-3.158zm1.219 3.158c0 2.069-1.508 3.311-3.969 3.311-2.44 0-3.932-1.242-3.932-3.311v-3.158c0-2.027 1.492-3.287 3.932-3.287 2.461 0 3.969 1.224 3.969 3.287v3.158zM292.7148 100.7002v7.578c0 .217-.109.322-.325.322h-.572c-.217 0-.325-.105-.325-.322v-7.166c0-.228-.107-.412-.323-.498-.663-.268-1.436-.393-2.335-.393-1.67 0-2.514.821-2.514 2.456v5.601c0 .236-.054.322-.326.322h-.552c-.236 0-.327-.086-.327-.322v-5.656c0-2.334 1.186-3.5 3.559-3.5 1.275 0 2.404.197 3.357.598.558.226.683.427.683.98M281.5693 100.9346c0-.336-.054-.396-.34-.521-.541-.192-1.26-.286-2.174-.286-1.992 0-2.548.573-2.548 1.795 0 1.241.697 1.758 2.583 1.758.576 0 1.401-.055 2.479-.16v-2.586zm-2.388 7.936c-1.741 0-2.946-.624-3.612-1.883-.106-.235-.052-.375.182-.467l.429-.18c.163-.086.327-.039.452.145.482.879 1.33 1.31 2.514 1.31 1.812 0 2.423-.902 2.423-2.459v-.828c-1.078.125-1.866.176-2.353.176-2.855 0-3.95-.748-3.95-2.781 0-.953.267-1.651.824-2.098.557-.471 1.565-.683 3.056-.683 1.275 0 2.263.158 2.982.466.502.217.646.393.646 1.026v4.703c0 2.176-.937 3.553-3.593 3.553M331.4111 89.7744h-2.604v1.832c0 .236-.055.322-.326.322h-.557c-.216 0-.322-.105-.322-.322v-1.832h-1.707c-.214 0-.326-.105-.326-.322v-.467c0-.215.112-.32.326-.32h1.707v-4.711c0-1.416.287-2.387.844-2.905.557-.537 1.526-.775 2.926-.755.235 0 .326.085.326.324v.482c0 .236-.11.342-.326.342-1.004 0-1.687.162-2.027.502-.36.326-.538 1.008-.538 2.053v4.668h2.604c.212 0 .322.105.322.32v.467c0 .217-.11.322-.322.322M334.7305 89.7744h-.577c-.216 0-.321-.105-.321-.322v-8.586c0-.213.105-.322.321-.322h.577c.216 0 .321.109.321.322v8.586c0 .217-.105.322-.321.322M278.252 93.0771h-.106c-.502 0-.663-.16-.663-.658v-.129c0-.502.161-.664.663-.664h.106c.506 0 .667.162.667.664v.129c0 .498-.161.658-.667.658M334.499 93.0771h-.11c-.502 0-.663-.16-.663-.658v-.129c0-.502.161-.664.663-.664h.11c.502 0 .662.162.662.664v.129c0 .498-.16.658-.662.658M322.6475 82.1104c0-.342-.055-.396-.341-.521-.537-.198-1.255-.288-2.173-.288-1.993 0-2.549.573-2.549 1.793 0 1.239.698 1.762 2.584 1.762.577 0 1.401-.057 2.479-.162v-2.584zm-2.389 7.936c-1.741 0-2.945-.629-3.608-1.887-.11-.233-.056-.377.181-.467l.428-.182c.163-.086.325-.031.45.151.484.875 1.33 1.304 2.514 1.304 1.813 0 2.424-.892 2.424-2.459v-.824c-1.078.127-1.867.178-2.354.178-2.855 0-3.949-.754-3.949-2.781 0-.957.268-1.653.827-2.1.557-.467 1.562-.685 3.052-.685 1.276 0 2.264.16 2.982.47.502.215.647.389.647 1.02v4.703c0 2.178-.934 3.559-3.594 3.559M345.1455 89.7744h-.432c-.377 0-.482-.051-.572-.322l-2.444-5.946c-.091-.232-.179-.539-.286-.898-.111-.373-.181-.59-.199-.645h-.053c-.02.055-.09.272-.2.645-.126.381-.213.682-.302.918l-2.461 5.926c-.093.271-.181.322-.558.322h-.413c-.342 0-.396-.07-.271-.377l3.593-8.602c.09-.197.236-.302.467-.302h.341c.198 0 .361.105.451.302l3.59 8.622c.125.287.055.357-.251.357M315.1221 90.0459h-.557c-1.255-.016-2.334-.217-3.252-.557-.517-.232-.682-.447-.682-1.009v-7.614c0-.213.109-.322.325-.322h.572c.217 0 .326.109.326.322v7.227c0 .23.106.371.306.463.683.25 1.472.375 2.37.375h.592c.216 0 .322.111.322.326v.467c0 .217-.106.322-.322.322M278.4873 89.7744h-.576c-.215 0-.322-.105-.322-.322v-8.586c0-.213.107-.322.322-.322h.576c.216 0 .321.109.321.322v8.586c0 .217-.105.322-.321.322M298.0107 89.7744h-2.604v1.832c0 .236-.055.322-.322.322h-.557c-.216 0-.326-.105-.326-.322v-1.832h-1.705c-.213 0-.323-.105-.323-.322v-.467c0-.215.11-.32.323-.32h1.705v-4.711c0-1.416.29-2.387.847-2.905.554-.537 1.526-.775 2.927-.755.231 0 .322.085.322.324v.482c0 .236-.106.342-.322.342-1.006 0-1.691.162-2.028.502-.361.326-.541 1.008-.541 2.053v4.668h2.604c.216 0 .322.105.322.32v.467c0 .217-.106.322-.322.322M286.8076 90.0459c-1.24 0-2.354-.197-3.343-.613-.556-.231-.682-.422-.682-.985v-7.582c0-.213.11-.322.326-.322h.572c.216 0 .324.109.324.322v7.227c0 .211.088.355.269.443.737.27 1.546.395 2.388.395 1.671 0 2.515-.811 2.515-2.444v-5.621c0-.228.09-.322.322-.322h.557c.218 0 .325.109.325.322v5.66c0 2.354-1.184 3.52-3.573 3.52M306.8447 85.7744h-5.551v.627c0 1.631.973 2.609 2.766 2.609 1.816 0 2.785-.978 2.785-2.609v-.627zm-2.785 4.271c-2.585 0-3.966-1.4-3.966-3.789v-2.334c0-2.248 1.291-3.628 3.896-3.628 1.851 0 3.126.646 3.843 1.941.146.23.107.393-.125.521l-.377.196c-.199.111-.376.072-.521-.125-.557-.989-1.49-1.49-2.82-1.49-1.743 0-2.696.898-2.696 2.458v1.042h6.214c.361 0 .541.16.541.505v.989c0 2.24-1.384 3.714-3.989 3.714M353.1123 83.5967c0-1.365-1.043-2.189-2.75-2.189-1.651 0-2.729.824-2.729 2.189v3.158c0 1.369 1.061 2.211 2.729 2.211 1.707 0 2.75-.842 2.75-2.211v-3.158zm-2.75 6.469c-2.439 0-3.931-1.244-3.931-3.311v-3.158c0-2.029 1.492-3.287 3.931-3.287 2.462 0 3.971 1.223 3.971 3.287v3.158c0 2.067-1.509 3.311-3.971 3.311M78.6426 82.2705c-.776-.805-1.726-1.205-2.824-1.205-1.126 0-2.103.4-2.878 1.205-.802.773-1.202 1.75-1.202 2.875 0 1.127.4 2.096 1.202 2.875.775.777 1.752 1.174 2.878 1.174 1.098 0 2.048-.397 2.824-1.174.777-.799 1.176-1.748 1.176-2.875 0-1.125-.399-2.074-1.176-2.875m-2.852 7.725c-1.326 0-2.475-.471-3.424-1.424-.977-.946-1.452-2.1-1.452-3.426s.475-2.479 1.452-3.428c.949-.949 2.098-1.424 3.424-1.424s2.479.475 3.425 1.424c.926.949 1.405 2.102 1.405 3.428s-.479 2.48-1.429 3.426c-.949.953-2.075 1.424-3.401 1.424" fill="#fff"/>
    <path d="M76.2656 85.0947h-1.699v1.852h1.699c.675 0 1.004-.303 1.004-.926s-.329-.926-1.004-.926m1.777.926c0 1.023-.651 1.648-1.75 1.648h-2.2c-.177 0-.277-.076-.277-.248v-4.629c0-.125.077-.172.2-.172h.352c.125 0 .199.047.199.172v1.629h1.526l.926-1.629c.075-.125.173-.172.321-.172h.354c.223 0 .298.102.173.27l-.95 1.605c.751.176 1.126.702 1.126 1.526M245.1787 168.6841c9.073 0 16.425 7.352 16.425 16.42 0 9.07-7.352 16.43-16.425 16.43-9.069 0-16.421-7.36-16.421-16.43 0-9.068 7.352-16.42 16.421-16.42M178.8799 105.7021c-9.069 0-16.425 7.354-16.425 16.428 0 9.074 7.356 16.427 16.425 16.427 9.073 0 16.425-7.353 16.425-16.427s-7.352-16.428-16.425-16.428m-65.931.059c-9.069 0-16.426 7.355-16.426 16.427 0 9.075 7.357 16.424 16.426 16.424 9.074 0 16.429-7.349 16.429-16.424 0-9.072-7.355-16.427-16.429-16.427m143.001 58.321h-21.539c-.675 0-1.333-.069-1.973-.187-.642.118-1.299.187-1.974.187h-21.536c-3.958 0-7.422-2.111-9.328-5.264-6.117 3.464-13.18 5.452-20.712 5.452-13.36 0-25.259-6.235-32.969-15.946-7.709 9.711-19.607 15.946-32.97 15.946-23.244 0-42.081-18.844-42.081-42.082 0-23.246 18.837-42.08 42.081-42.08 13.363 0 25.261 6.233 32.97 15.942 7.71-9.709 19.609-15.942 32.969-15.942 7.532 0 14.595 1.987 20.712 5.449 1.906-3.158 5.37-5.263 9.328-5.263h21.536c.675 0 1.332.07 1.974.187.64-.117 1.298-.187 1.973-.187h21.539c6.014 0 10.89 4.875 10.89 10.892v62.01c0 6.013-4.876 10.886-10.89 10.886" fill="#fff"/>
  </g>
  <g id="side-text">
    <path id="original" d="M331.659 131.489c-.232 0-.322-.09-.322-.32V118.52c0-.23.09-.319.322-.319h.557c.269 0 .325.089.325.319v12.649c0 .23-.056.32-.325.32h-.557zm-24.277-.751c-.502 0-.662-.167-.662-.665v-.128c0-.503.16-.664.662-.664h.11c.502 0 .663.161.663.664v.128c0 .498-.161.665-.663.665h-.11zm-13.933 0c-.503 0-.663-.167-.663-.665v-.128c0-.503.16-.664.663-.664h.106c.506 0 .667.161.667.664v.128c0 .498-.161.665-.667.665h-.106zm28.048-4.924c-.108-.233-.053-.377.177-.467l.432-.18c.161-.088.326-.035.451.145.483.879 1.329 1.31 2.511 1.31 1.816 0 2.427-.898 2.427-2.457v-.826c-1.077.121-1.865.175-2.352.175-2.856 0-3.951-.753-3.951-2.781 0-.953.268-1.652.824-2.103.557-.467 1.563-.681 3.052-.681 1.278 0 2.266.16 2.986.466.502.215.643.397.643 1.023v4.707c0 2.17-.934 3.555-3.59 3.555-1.741 0-2.946-.627-3.61-1.886m.935-5.065c0 1.241.698 1.762 2.586 1.762.571 0 1.4-.055 2.477-.162v-2.584c0-.346-.053-.397-.34-.522-.54-.201-1.26-.287-2.174-.287-1.992 0-2.549.572-2.549 1.793m-10.651 6.34c-.558-.232-.683-.428-.683-.988v-7.581c0-.214.109-.319.324-.319h.573c.217 0 .327.105.327.319v7.227c0 .211.089.354.266.444.737.269 1.546.396 2.389.396 1.674 0 2.516-.805 2.516-2.442v-5.625c0-.23.091-.319.327-.319h.552c.22 0 .326.105.326.319v5.661c0 2.355-1.185 3.519-3.576 3.519-1.239 0-2.353-.195-3.341-.611m-14.884-3.068v-2.354c0-2.33 1.184-3.504 3.554-3.504.919 0 1.867.182 2.84.543v-1.119c0-1.808-.883-2.731-2.624-2.731-1.13 0-1.958.487-2.477 1.44-.129.201-.306.252-.52.127l-.396-.197c-.234-.125-.287-.309-.126-.542.699-1.275 1.884-1.921 3.554-1.921 2.533 0 3.79 1.295 3.79 3.879v8.533c0 .592-.107.717-.683.988-.859.357-1.868.537-3.033.537-2.586 0-3.879-1.225-3.879-3.679m1.22-2.319v2.295c0 1.727.915 2.59 2.73 2.59.789 0 1.491-.112 2.103-.342.302-.121.341-.179.341-.463v-5.979c-.918-.349-1.816-.525-2.695-.525-1.652 0-2.479.809-2.479 2.424m-8.246 5.998c-1.259-.02-2.334-.215-3.252-.556-.522-.237-.683-.447-.683-1.005v-7.619c0-.214.108-.319.327-.319h.572c.216 0 .323.105.323.319v7.227c0 .227.108.377.305.463.683.25 1.475.377 2.373.377h.593c.212 0 .321.11.321.32v.471c0 .217-.109.322-.321.322h-.558zm-14.604-3.306v-3.159c0-2.027 1.49-3.286 3.93-3.286 2.462 0 3.97 1.22 3.97 3.286v3.159c0 2.066-1.508 3.306-3.97 3.306-2.44 0-3.93-1.24-3.93-3.306m1.201-3.159v3.159c0 1.368 1.062 2.213 2.729 2.213 1.707 0 2.75-.845 2.75-2.213v-3.159c0-1.365-1.043-2.193-2.75-2.193-1.651 0-2.729.828-2.729 2.193m30.679 6.193c-.212 0-.322-.105-.322-.319v-8.589c0-.214.11-.319.322-.319h.576c.216 0 .323.105.323.319v8.589c0 .214-.107.319-.323.319h-.576zm-13.933 0c-.213 0-.323-.105-.323-.319v-8.589c0-.214.11-.319.323-.319h.576c.216 0 .325.105.325.319v8.589c0 .214-.109.319-.325.319h-.576z" fill="url(#b)" transform="matrix(1.25 0 0 -1.25 -78.58 261.92)"/>
    <path id="autentico" d="M305.084 112.214c-.305 0-.357-.015-.628-.287l-2.153-1.887c-.165-.176-.111-.268.161-.268h.447c.215 0 .376.051.504.175l1.704 1.459 1.691-1.459c.125-.124.287-.175.521-.175h.483c.271 0 .325.092.161.268l-2.154 1.887c-.196.195-.396.287-.591.287h-.146zm22.727-.307c-.506 0-.667-.16-.667-.662v-.127c0-.505.161-.666.667-.666h.105c.503 0 .663.161.663.666v.127c0 .502-.16.662-.663.662h-.105zm-6.107-1.15c-.215 0-.323-.106-.323-.316V108.6h-1.706c-.216 0-.323-.105-.323-.322v-.466c0-.212.107-.319.323-.319h1.706v-4.711c0-1.416.286-2.384.843-2.906.557-.541 1.528-.773 2.927-.754.235 0 .326.088.326.323v.482c0 .236-.109.342-.326.342-1.004 0-1.687.164-2.029.506-.357.326-.537 1.003-.537 2.043v4.675h2.606c.214 0 .321.107.321.319v.466c0 .217-.107.322-.321.322h-2.606v1.841c0 .23-.055.316-.326.316h-.555zm-25.4 0c-.215 0-.323-.106-.323-.316V108.6h-1.706c-.214 0-.324-.105-.324-.322v-.466c0-.212.11-.319.324-.319h1.706v-4.711c0-1.416.288-2.384.845-2.906.557-.541 1.527-.773 2.927-.754.231 0 .321.088.321.323v.482c0 .236-.105.342-.321.342-1.004 0-1.687.164-2.03.506-.358.326-.54 1.003-.54 2.043v4.675h2.605c.216 0 .321.107.321.319v.466c0 .217-.105.322-.321.322h-2.605v1.841c0 .23-.052.316-.322.316h-.557zm43.013-5.193v-3.158c0-2.028 1.491-3.288 3.932-3.288 2.461 0 3.969 1.225 3.969 3.288v3.158c0 2.068-1.508 3.31-3.969 3.31-2.441 0-3.932-1.242-3.932-3.31m1.203-3.158v3.158c0 1.369 1.061 2.213 2.729 2.213 1.706 0 2.75-.844 2.75-2.213v-3.158c0-1.364-1.044-2.188-2.75-2.188-1.652 0-2.729.824-2.729 2.188m-10.341 2.931v-2.679c0-2.225 1.331-3.536 3.845-3.536 2.028 0 3.303.84 3.859 2.511.091.235.017.377-.214.471l-.467.141c-.234.054-.377-.011-.467-.215-.376-1.236-1.275-1.847-2.676-1.847-1.726 0-2.679.918-2.679 2.439v2.75c0 1.522.938 2.424 2.679 2.424 1.506 0 2.28-.538 2.656-1.758.091-.219.235-.289.451-.219l.467.161c.215.093.285.236.215.47-.486 1.618-1.74 2.42-3.754 2.42-2.584 0-3.915-1.308-3.915-3.533m-18.819 2.926c-.557-.231-.683-.432-.683-.988v-7.578c0-.217.107-.327.322-.327h.577c.216 0 .322.11.322.327v7.22c0 .213.09.358.27.448.738.27 1.546.396 2.389.396 1.673 0 2.517-.805 2.517-2.444v-5.62c0-.237.09-.327.322-.327h.556c.216 0 .327.11.327.327v5.655c0 2.358-1.19 3.518-3.577 3.518-1.239 0-2.353-.195-3.342-.607m-10.206-3.182v-2.334c0-2.24 1.29-3.625 3.894-3.625 1.851 0 3.126.648 3.845 1.944.145.23.106.39-.126.517l-.377.195c-.199.11-.376.074-.521-.125-.558-.984-1.491-1.49-2.821-1.49-1.742 0-2.695.903-2.695 2.459v1.043h6.215c.36 0 .541.162.541.502v.988c0 2.245-1.386 3.715-3.99 3.715-2.585 0-3.965-1.4-3.965-3.789m1.199.146c0 1.635.973 2.604 2.766 2.604 1.816 0 2.785-.969 2.785-2.604v-.628h-5.551v.628zm-26.784 1.761c-.106-.235-.051-.376.182-.468l.429-.18c.164-.085.327-.038.452.145.483.88 1.33 1.311 2.515 1.311 1.811 0 2.422-.902 2.422-2.459v-.828c-1.078.125-1.866.175-2.352.175-2.856 0-3.95-.747-3.95-2.781 0-.953.266-1.65.822-2.098.558-.47 1.566-.683 3.058-.683 1.274 0 2.262.158 2.981.467.502.216.647.392.647 1.026v4.702c0 2.176-.938 3.553-3.593 3.553-1.742 0-2.947-.623-3.613-1.882m.938-5.065c0 1.24.697 1.758 2.584 1.758.575 0 1.4-.055 2.478-.16v-2.586c0-.337-.053-.397-.34-.522-.541-.192-1.26-.285-2.173-.285-1.993 0-2.549.572-2.549 1.795m51.068 6.677c-.215 0-.322-.105-.322-.322v-8.581c0-.217.107-.327.322-.327h.574c.218 0 .325.11.325.327v8.581c0 .217-.107.322-.325.322h-.574zm-35.757 0c-.217 0-.325-.105-.325-.322v-7.166c0-.228-.107-.412-.323-.497-.663-.269-1.437-.394-2.335-.394-1.67 0-2.513.821-2.513 2.455v5.602c0 .237-.055.322-.327.322h-.553c-.235 0-.326-.085-.326-.322v-5.656c0-2.334 1.186-3.5 3.559-3.5 1.275 0 2.404.198 3.357.598.558.226.683.428.683.98v7.578c0 .217-.11.322-.326.322h-.571z" fill="url(#c)" transform="matrix(1.25 0 0 -1.25 -78.58 261.92)"/>
    <path id="interativo" d="M334.389 93.077c-.502 0-.664-.16-.664-.658v-.129c0-.502.162-.664.664-.664h.11c.502 0 .662.162.662.664v.129c0 .498-.16.658-.662.658h-.11zm-56.243 0c-.502 0-.663-.16-.663-.658v-.129c0-.502.161-.664.663-.664h.106c.506 0 .667.162.667.664v.129c0 .498-.161.658-.667.658h-.106zm49.778-1.148c-.216 0-.321-.106-.321-.322v-1.833h-1.708c-.215 0-.325-.105-.325-.322v-.466c0-.215.11-.321.325-.321h1.708v-4.711c0-1.416.286-2.387.843-2.905.557-.536 1.525-.774 2.926-.755.236 0 .327.086.327.324v.483c0 .236-.111.342-.327.342-1.004 0-1.687.162-2.027.501-.36.327-.538 1.008-.538 2.053v4.668h2.604c.212 0 .323.106.323.321v.466c0 .217-.111.322-.323.322h-2.604v1.833c0 .236-.055.322-.326.322h-.557zm-33.396 0c-.216 0-.326-.106-.326-.322v-1.833h-1.705c-.213 0-.323-.105-.323-.322v-.466c0-.215.11-.321.323-.321h1.705v-4.711c0-1.416.291-2.387.847-2.905.553-.536 1.526-.774 2.927-.755.231 0 .322.086.322.324v.483c0 .236-.106.342-.322.342-1.007 0-1.691.162-2.029.501-.36.327-.541 1.008-.541 2.053v4.668h2.605c.216 0 .322.106.322.321v.466c0 .217-.106.322-.322.322h-2.605v1.833c0 .236-.055.322-.321.322h-.557zm51.904-5.174v-3.159c0-2.029 1.491-3.286 3.93-3.286 2.462 0 3.971 1.222 3.971 3.286v3.159c0 2.066-1.509 3.311-3.971 3.311-2.439 0-3.93-1.245-3.93-3.311m1.202-3.159v3.159c0 1.369 1.06 2.211 2.728 2.211 1.707 0 2.75-.842 2.75-2.211v-3.159c0-1.365-1.043-2.189-2.75-2.189-1.651 0-2.728.824-2.728 2.189m-30.983 4.564c-.111-.234-.056-.378.18-.468l.429-.181c.163-.086.324-.032.449.15.484.875 1.33 1.305 2.515 1.305 1.812 0 2.423-.893 2.423-2.459v-.824c-1.078.127-1.866.177-2.353.177-2.856 0-3.949-.753-3.949-2.781 0-.957.267-1.652.827-2.1.557-.466 1.561-.685 3.052-.685 1.275 0 2.263.16 2.981.47.502.215.647.389.647 1.02v4.703c0 2.178-.933 3.559-3.593 3.559-1.742 0-2.945-.629-3.608-1.886m.933-5.066c0 1.239.698 1.763 2.585 1.763.576 0 1.4-.057 2.478-.162v-2.584c0-.342-.055-.397-.341-.522-.536-.198-1.254-.288-2.172-.288-1.993 0-2.55.573-2.55 1.793m-3.019 6.952c-1.255-.015-2.333-.217-3.251-.556-.518-.233-.684-.448-.684-1.01v-7.614c0-.212.11-.322.326-.322h.573c.216 0 .325.11.325.322v7.227c0 .23.106.371.306.462.683.251 1.472.376 2.37.376h.592c.215 0 .323.111.323.326v.467c0 .217-.108.322-.323.322h-.557zm-14.472-3.789v-2.334c0-2.248 1.292-3.629 3.896-3.629 1.852 0 3.127.647 3.844 1.942.145.23.106.392-.125.521l-.377.195c-.199.112-.376.072-.521-.125-.557-.988-1.49-1.49-2.821-1.49-1.742 0-2.695.899-2.695 2.459v1.041h6.214c.361 0 .54.16.54.505v.989c0 2.241-1.383 3.715-3.988 3.715-2.585 0-3.967-1.4-3.967-3.789m1.201.145c0 1.631.973 2.609 2.766 2.609 1.816 0 2.785-.978 2.785-2.609v-.627h-5.551v.627zm-17.829 3.031c-.557-.231-.683-.422-.683-.985v-7.582c0-.212.11-.322.326-.322h.573c.216 0 .324.11.324.322v7.227c0 .21.088.355.268.443.738.27 1.546.395 2.389.395 1.671 0 2.515-.811 2.515-2.444v-5.621c0-.229.089-.322.322-.322h.557c.217 0 .324.11.324.322v5.66c0 2.354-1.184 3.52-3.573 3.52-1.24 0-2.353-.197-3.342-.613m61.249.341c-.377 0-.483-.05-.572-.322l-2.444-5.945c-.091-.233-.18-.54-.287-.899-.11-.372-.181-.589-.199-.644h-.053c-.019.055-.09.272-.199.644-.126.381-.214.682-.303.918l-2.46 5.926c-.093.272-.181.322-.558.322h-.414c-.342 0-.396-.07-.271-.376l3.593-8.602c.09-.197.236-.303.467-.303h.342c.198 0 .36.106.45.303l3.591 8.621c.125.287.055.357-.251.357h-.432zm-10.561 0c-.215 0-.321-.105-.321-.322v-8.586c0-.212.106-.322.321-.322h.578c.216 0 .321.11.321.322v8.586c0 .217-.105.322-.321.322h-.578zm-56.242 0c-.215 0-.322-.105-.322-.322v-8.586c0-.212.107-.322.322-.322h.576c.216 0 .321.11.321.322v8.586c0 .217-.105.322-.321.322h-.576z" fill="url(#d)" transform="matrix(1.25 0 0 -1.25 -78.58 261.92)"/>
  </g>
  <g id="main-oai" clip-path="url(#e)" transform="matrix(1.25 0 0 -1.25 -78.58 261.92)">
    <g id="main-trademark">
      <path d="M74.5669 85.0947h1.699c.675 0 1.004.303 1.004.926s-.329.926-1.004.926h-1.699v-1.852zm1.726 2.574c1.099 0 1.75-.625 1.75-1.648 0-.824-.375-1.35-1.126-1.526l.949-1.605c.126-.168.051-.27-.173-.27h-.353c-.148 0-.247.047-.321.172l-.926 1.629h-1.526v-1.629c0-.125-.075-.172-.2-.172h-.351c-.123 0-.2.047-.2.172v4.629c0 .172.1.248.276.248h2.201zm-4.554-2.523c0-1.125.4-2.102 1.202-2.875.775-.805 1.751-1.205 2.877-1.205 1.099 0 2.048.4 2.825 1.205.777.801 1.176 1.75 1.176 2.875 0 1.127-.399 2.076-1.176 2.875-.777.777-1.726 1.174-2.825 1.174-1.126 0-2.102-.397-2.877-1.174-.802-.78-1.202-1.748-1.202-2.875m-.824 0c0 1.326.475 2.48 1.451 3.426.95.953 2.099 1.423 3.425 1.423 1.326 0 2.452-.47 3.401-1.423.95-.946 1.428-2.1 1.428-3.426s-.478-2.479-1.404-3.428c-.946-.949-2.099-1.424-3.425-1.424-1.326 0-2.475.475-3.425 1.424-.976.949-1.451 2.102-1.451 3.428" fill="#2e3092"/>
    </g>
    <g id="main-o" clip-path="url(#f)" opacity=".80000299">
      <path d="M112.949 105.761c-9.069 0-16.426 7.355-16.426 16.427 0 9.075 7.357 16.424 16.426 16.424 9.074 0 16.429-7.349 16.429-16.424 0-9.072-7.355-16.427-16.429-16.427m0 58.509c-23.244 0-42.081-18.844-42.081-42.082 0-23.246 18.837-42.08 42.081-42.08 23.243 0 42.084 18.834 42.084 42.08 0 23.238-18.841 42.082-42.084 42.082" fill="url(#g)"/>
    </g>
    <g id="main-a" clip-path="url(#h)" opacity=".80000299">
      <path d="M178.88 105.702c-9.069 0-16.425 7.354-16.425 16.428 0 9.074 7.356 16.428 16.425 16.428 9.073 0 16.425-7.354 16.425-16.428 0-9.074-7.352-16.428-16.425-16.428m51.584 58.381h-21.536c-3.958 0-7.422-2.112-9.328-5.265-6.118 3.464-13.181 5.452-20.712 5.452-23.239 0-42.084-18.844-42.084-42.082 0-23.246 18.845-42.08 42.084-42.08 7.531 0 14.594 1.987 20.712 5.45 1.906-3.159 5.37-5.264 9.328-5.264h21.536c6.014 0 10.894 4.875 10.894 10.893v62.009c0 6.013-4.88 10.887-10.894 10.887" fill="url(#i)"/>
    </g>
    <g id="main-i" clip-path="url(#j)" opacity=".80000299">
      <path d="M245.179 168.684c9.073 0 16.425 7.352 16.425 16.42 0 9.07-7.352 16.43-16.425 16.43-9.07 0-16.421-7.36-16.421-16.43 0-9.068 7.351-16.42 16.421-16.42m21.661-77.497c0-6.018-4.876-10.893-10.89-10.893h-21.539c-6.017 0-10.892 4.875-10.892 10.893v62.009c0 6.013 4.875 10.887 10.892 10.887h21.539c6.014 0 10.89-4.874 10.89-10.887V91.187z" fill="url(#k)"/>
    </g>
  </g>
</svg>