<?xml version="1.0" encoding="UTF-8" standalone="no"?>
<!-- Created with Inkscape (http://www.inkscape.org/) -->

<svg
   xmlns:dc="http://purl.org/dc/elements/1.1/"
   xmlns:cc="http://creativecommons.org/ns#"
   xmlns:rdf="http://www.w3.org/1999/02/22-rdf-syntax-ns#"
   xmlns:svg="http://www.w3.org/2000/svg"
   xmlns="http://www.w3.org/2000/svg"
   xmlns:sodipodi="http://sodipodi.sourceforge.net/DTD/sodipodi-0.dtd"
   xmlns:inkscape="http://www.inkscape.org/namespaces/inkscape"
   id="svg2"
   version="1.1"
   inkscape:version="0.91 r13725"
   xml:space="preserve"
   width="374.33176"
   height="171.7825"
   viewBox="0 0 374.33176 171.7825"
   sodipodi:docname="OAI.svg"><metadata
     id="metadata8"><rdf:RDF><cc:Work
         rdf:about=""><dc:format>image/svg+xml</dc:format><dc:type
           rdf:resource="http://purl.org/dc/dcmitype/StillImage" /><dc:title></dc:title></cc:Work></rdf:RDF></metadata><defs
     id="defs6"><clipPath
       clipPathUnits="userSpaceOnUse"
       id="clipPath16"><path
         d="m 0,283.46 425.2,0 L 425.2,0 0,0 0,283.46 Z"
         id="path18"
         inkscape:connector-curvature="0" /></clipPath><linearGradient
       x1="0"
       y1="0"
       x2="1"
       y2="0"
       gradientUnits="userSpaceOnUse"
       gradientTransform="matrix(57.274414,0,0,-57.274414,275.2666,122.62598)"
       spreadMethod="pad"
       id="linearGradient180"><stop
         style="stop-opacity:1;stop-color:#2e3092"
         offset="0"
         id="stop182" /><stop
         style="stop-opacity:1;stop-color:#2e3092"
         offset="0.00425532"
         id="stop184" /><stop
         style="stop-opacity:1;stop-color:#0095da"
         offset="1"
         id="stop186" /></linearGradient><linearGradient
       x1="0"
       y1="0"
       x2="1"
       y2="0"
       gradientUnits="userSpaceOnUse"
       gradientTransform="matrix(71.951172,0,0,-71.951172,275.2666,105.66602)"
       spreadMethod="pad"
       id="linearGradient202"><stop
         style="stop-opacity:1;stop-color:#f7931d"
         offset="0"
         id="stop204" /><stop
         style="stop-opacity:1;stop-color:#ffde00"
         offset="1"
         id="stop206" /></linearGradient><linearGradient
       x1="0"
       y1="0"
       x2="1"
       y2="0"
       gradientUnits="userSpaceOnUse"
       gradientTransform="matrix(76.849609,0,0,-76.849609,277.4834,86.68457)"
       spreadMethod="pad"
       id="linearGradient222"><stop
         style="stop-opacity:1;stop-color:#3777bc"
         offset="0"
         id="stop224" /><stop
         style="stop-opacity:1;stop-color:#ec008c"
         offset="1"
         id="stop226" /></linearGradient><clipPath
       clipPathUnits="userSpaceOnUse"
       id="clipPath234"><path
         d="m 0,283.46 425.2,0 L 425.2,0 0,0 0,283.46 Z"
         id="path236"
         inkscape:connector-curvature="0" /></clipPath><clipPath
       clipPathUnits="userSpaceOnUse"
       id="clipPath246"><path
         d="m 70.8677,164.27 84.1653,0 0,-84.1616 -84.1653,0 0,84.1616 z"
         id="path248"
         inkscape:connector-curvature="0" /></clipPath><linearGradient
       x1="0"
       y1="0"
       x2="1"
       y2="0"
       gradientUnits="userSpaceOnUse"
       gradientTransform="matrix(84.165527,0,0,-84.165527,70.867676,122.18945)"
       spreadMethod="pad"
       id="linearGradient254"><stop
         style="stop-opacity:1;stop-color:#2e3092"
         offset="0"
         id="stop256" /><stop
         style="stop-opacity:1;stop-color:#2e3092"
         offset="0.00425532"
         id="stop258" /><stop
         style="stop-opacity:1;stop-color:#0095da"
         offset="1"
         id="stop260" /></linearGradient><clipPath
       clipPathUnits="userSpaceOnUse"
       id="clipPath280"><path
         d="m 136.804,164.27 104.554,0 0,-84.1616 -104.554,0 0,84.1616 z"
         id="path282"
         inkscape:connector-curvature="0" /></clipPath><linearGradient
       x1="0"
       y1="0"
       x2="1"
       y2="0"
       gradientUnits="userSpaceOnUse"
       gradientTransform="matrix(104.55469,0,0,-104.55469,136.80371,122.18945)"
       spreadMethod="pad"
       id="linearGradient288"><stop
         style="stop-opacity:1;stop-color:#f7931d"
         offset="0"
         id="stop290" /><stop
         style="stop-opacity:1;stop-color:#ffde00"
         offset="1"
         id="stop292" /></linearGradient><clipPath
       clipPathUnits="userSpaceOnUse"
       id="clipPath312"><path
         d="m 223.519,201.534 43.321,0 0,-121.2401 -43.321,0 0,121.2401 z"
         id="path314"
         inkscape:connector-curvature="0" /></clipPath><linearGradient
       x1="0"
       y1="0"
       x2="1"
       y2="0"
       gradientUnits="userSpaceOnUse"
       gradientTransform="matrix(43.321289,0,0,-43.321289,223.51855,140.91406)"
       spreadMethod="pad"
       id="linearGradient320"><stop
         style="stop-opacity:1;stop-color:#3777bc"
         offset="0"
         id="stop322" /><stop
         style="stop-opacity:1;stop-color:#ec008c"
         offset="1"
         id="stop324" /></linearGradient></defs><sodipodi:namedview
     pagecolor="#ffffff"
     bordercolor="#666666"
     borderopacity="1"
     objecttolerance="10"
     gridtolerance="10"
     guidetolerance="10"
     inkscape:pageopacity="0"
     inkscape:pageshadow="2"
     inkscape:window-width="1259"
     inkscape:window-height="963"
     id="namedview4"
     showgrid="false"
     fit-margin-top="10"
     fit-margin-left="10"
     fit-margin-right="10"
     fit-margin-bottom="10"
     inkscape:zoom="0.66605515"
     inkscape:cx="116.6004"
     inkscape:cy="87.027356"
     inkscape:window-x="0"
     inkscape:window-y="0"
     inkscape:window-maximized="0"
     inkscape:current-layer="g10" /><g
     id="g10"
     inkscape:groupmode="layer"
     inkscape:label="marca_oai_degrade"
     transform="matrix(1.25,0,0,-1.25,-78.584875,261.91762)"><g
       id="g12"><g
         id="g14"
         clip-path="url(#clipPath16)"><g
           id="g20"
           transform="translate(298.1172,123.9971)"><path
             d="m 0,0 c 0,1.727 0.915,2.59 2.729,2.59 0.79,0 1.492,-0.111 2.104,-0.342 0.302,-0.121 0.341,-0.18 0.341,-0.463 l 0,-5.978 C 4.256,-4.543 3.357,-4.719 2.479,-4.719 0.827,-4.719 0,-3.91 0,-2.295 L 0,0 Z m 2.334,-5.834 c 0.918,0 1.867,0.182 2.84,0.543 l 0,-1.119 c 0,-1.809 -0.883,-2.731 -2.624,-2.731 -1.13,0 -1.958,0.487 -2.478,1.44 -0.128,0.201 -0.305,0.252 -0.519,0.127 L -0.844,-7.771 C -1.077,-7.896 -1.13,-8.08 -0.97,-8.313 c 0.699,-1.275 1.885,-1.921 3.555,-1.921 2.533,0 3.789,1.295 3.789,3.879 l 0,8.533 C 6.374,2.77 6.269,2.895 5.691,3.166 4.833,3.523 3.824,3.703 2.659,3.703 0.072,3.703 -1.22,2.479 -1.22,0.023 l 0,-2.353 c 0,-2.33 1.184,-3.504 3.554,-3.504"
             style="fill:#ffffff;fill-opacity:1;fill-rule:nonzero;stroke:none"
             id="path22"
             inkscape:connector-curvature="0" /></g><g
           id="g24"
           transform="translate(293.4482,129.2803)"><path
             d="m 0,0 0.106,0 c 0.506,0 0.667,0.162 0.667,0.664 l 0,0.129 c 0,0.498 -0.161,0.664 -0.667,0.664 L 0,1.457 c -0.502,0 -0.662,-0.166 -0.662,-0.664 l 0,-0.129 C -0.662,0.162 -0.502,0 0,0"
             style="fill:#ffffff;fill-opacity:1;fill-rule:nonzero;stroke:none"
             id="path26"
             inkscape:connector-curvature="0" /></g><g
           id="g28"
           transform="translate(286.2627,118.2002)"><path
             d="m 0,0 0.572,0 c 0.216,0 0.323,0.105 0.323,0.32 l 0,7.227 c 0,0.226 0.109,0.377 0.305,0.463 0.683,0.25 1.475,0.377 2.373,0.377 l 0.593,0 c 0.213,0 0.321,0.109 0.321,0.32 l 0,0.471 C 4.487,9.395 4.379,9.5 4.166,9.5 l -0.558,0 C 2.35,9.48 1.274,9.285 0.356,8.943 -0.165,8.707 -0.326,8.496 -0.326,7.939 l 0,-7.619 C -0.326,0.105 -0.219,0 0,0"
             style="fill:#ffffff;fill-opacity:1;fill-rule:nonzero;stroke:none"
             id="path30"
             inkscape:connector-curvature="0" /></g><g
           id="g32"
           transform="translate(276.4687,124.3936)"><path
             d="m 0,0 c 0,1.369 1.062,2.213 2.729,2.213 1.706,0 2.75,-0.844 2.75,-2.213 l 0,-3.158 c 0,-1.365 -1.044,-2.194 -2.75,-2.194 C 1.077,-5.352 0,-4.523 0,-3.158 L 0,0 Z m 2.729,-6.445 c 2.461,0 3.969,1.22 3.969,3.287 L 6.698,0 C 6.698,2.066 5.19,3.307 2.729,3.307 0.288,3.307 -1.202,2.066 -1.202,0 l 0,-3.158 c 0,-2.028 1.49,-3.287 3.931,-3.287"
             style="fill:#ffffff;fill-opacity:1;fill-rule:nonzero;stroke:none"
             id="path34"
             inkscape:connector-curvature="0" /></g><g
           id="g36"
           transform="translate(293.79,127.4287)"><path
             d="m 0,0 -0.576,0 c -0.213,0 -0.322,-0.105 -0.322,-0.32 l 0,-8.588 c 0,-0.215 0.109,-0.321 0.322,-0.321 l 0.576,0 c 0.216,0 0.324,0.106 0.324,0.321 l 0,8.588 C 0.324,-0.105 0.216,0 0,0"
             style="fill:#ffffff;fill-opacity:1;fill-rule:nonzero;stroke:none"
             id="path38"
             inkscape:connector-curvature="0" /></g><g
           id="g40"
           transform="translate(327.4951,119.7646)"><path
             d="m 0,0 c 0,-0.346 -0.054,-0.396 -0.34,-0.521 -0.541,-0.202 -1.26,-0.288 -2.174,-0.288 -1.992,0 -2.548,0.573 -2.548,1.793 0,1.241 0.697,1.762 2.584,1.762 0.573,0 1.401,-0.055 2.478,-0.162 L 0,0 Z m -2.353,3.75 c -2.855,0 -3.95,-0.754 -3.95,-2.781 0,-0.953 0.268,-1.653 0.824,-2.104 0.557,-0.467 1.563,-0.681 3.052,-0.681 1.279,0 2.266,0.16 2.986,0.466 0.502,0.215 0.643,0.397 0.643,1.024 l 0,4.707 c 0,2.17 -0.934,3.555 -3.59,3.555 -1.741,0 -2.946,-0.627 -3.61,-1.887 C -6.106,5.816 -6.051,5.672 -5.82,5.582 l 0.431,-0.18 c 0.161,-0.088 0.327,-0.035 0.452,0.145 0.482,0.879 1.328,1.31 2.51,1.31 C -0.61,6.857 0,5.959 0,4.4 L 0,3.574 C -1.077,3.695 -1.865,3.75 -2.353,3.75"
             style="fill:#ffffff;fill-opacity:1;fill-rule:nonzero;stroke:none"
             id="path42"
             inkscape:connector-curvature="0" /></g><g
           id="g44"
           transform="translate(331.6592,118.2002)"><path
             d="m 0,0 0.557,0 c 0.269,0 0.325,0.09 0.325,0.32 l 0,12.649 c 0,0.23 -0.056,0.32 -0.325,0.32 l -0.557,0 c -0.232,0 -0.322,-0.09 -0.322,-0.32 l 0,-12.649 C -0.322,0.09 -0.232,0 0,0"
             style="fill:#ffffff;fill-opacity:1;fill-rule:nonzero;stroke:none"
             id="path46"
             inkscape:connector-curvature="0" /></g><g
           id="g48"
           transform="translate(311.4229,118.2002)"><path
             d="m 0,0 0.572,0 c 0.217,0 0.326,0.105 0.326,0.32 l 0,7.227 c 0,0.211 0.09,0.353 0.267,0.443 0.737,0.27 1.546,0.397 2.39,0.397 1.673,0 2.515,-0.805 2.515,-2.442 l 0,-5.625 C 6.07,0.09 6.161,0 6.396,0 l 0.553,0 c 0.22,0 0.326,0.105 0.326,0.32 l 0,5.66 C 7.275,8.336 6.09,9.5 3.699,9.5 2.46,9.5 1.346,9.305 0.357,8.889 -0.2,8.656 -0.325,8.461 -0.325,7.9 l 0,-7.58 C -0.325,0.105 -0.216,0 0,0"
             style="fill:#ffffff;fill-opacity:1;fill-rule:nonzero;stroke:none"
             id="path50"
             inkscape:connector-curvature="0" /></g><g
           id="g52"
           transform="translate(307.7236,127.4287)"><path
             d="m 0,0 -0.576,0 c -0.212,0 -0.322,-0.105 -0.322,-0.32 l 0,-8.588 c 0,-0.215 0.11,-0.321 0.322,-0.321 l 0.576,0 c 0.216,0 0.322,0.106 0.322,0.321 l 0,8.588 C 0.322,-0.105 0.216,0 0,0"
             style="fill:#ffffff;fill-opacity:1;fill-rule:nonzero;stroke:none"
             id="path54"
             inkscape:connector-curvature="0" /></g><g
           id="g56"
           transform="translate(307.3828,129.2803)"><path
             d="m 0,0 0.109,0 c 0.502,0 0.663,0.162 0.663,0.664 l 0,0.129 c 0,0.498 -0.161,0.664 -0.663,0.664 L 0,1.457 c -0.503,0 -0.663,-0.166 -0.663,-0.664 l 0,-0.129 C -0.663,0.162 -0.503,0 0,0"
             style="fill:#ffffff;fill-opacity:1;fill-rule:nonzero;stroke:none"
             id="path58"
             inkscape:connector-curvature="0" /></g><g
           id="g60"
           transform="translate(334.0244,99.1221)"><path
             d="M 0,0 C 2.027,0 3.303,0.84 3.859,2.512 3.95,2.746 3.875,2.889 3.645,2.982 L 3.178,3.123 C 2.943,3.178 2.801,3.111 2.711,2.908 2.334,1.672 1.436,1.061 0.035,1.061 c -1.726,0 -2.68,0.918 -2.68,2.439 l 0,2.75 c 0,1.521 0.938,2.424 2.68,2.424 1.506,0 2.279,-0.537 2.655,-1.758 C 2.781,6.697 2.926,6.627 3.142,6.697 l 0.466,0.16 c 0.216,0.094 0.287,0.237 0.216,0.471 -0.486,1.617 -1.741,2.42 -3.754,2.42 -2.585,0 -3.915,-1.309 -3.915,-3.533 l 0,-2.68 C -3.845,1.311 -2.515,0 0,0"
             style="fill:#ffffff;fill-opacity:1;fill-rule:nonzero;stroke:none"
             id="path62"
             inkscape:connector-curvature="0" /></g><g
           id="g64"
           transform="translate(310.999,99.3701)"><path
             d="m 0,0 0.577,0 c 0.216,0 0.321,0.109 0.321,0.326 l 0,7.221 c 0,0.213 0.09,0.357 0.271,0.447 0.737,0.272 1.546,0.397 2.39,0.397 1.672,0 2.515,-0.805 2.515,-2.444 l 0,-5.621 C 6.074,0.09 6.165,0 6.396,0 l 0.557,0 c 0.216,0 0.326,0.109 0.326,0.326 l 0,5.656 C 7.279,8.34 6.09,9.5 3.703,9.5 2.464,9.5 1.35,9.305 0.361,8.893 -0.195,8.662 -0.321,8.461 -0.321,7.904 l 0,-7.578 C -0.321,0.109 -0.215,0 0,0"
             style="fill:#ffffff;fill-opacity:1;fill-rule:nonzero;stroke:none"
             id="path66"
             inkscape:connector-curvature="0" /></g><g
           id="g68"
           transform="translate(302.3027,110.04)"><path
             d="m 0,0 c -0.165,-0.176 -0.11,-0.268 0.161,-0.268 l 0.447,0 c 0.215,0 0.376,0.051 0.504,0.174 l 1.704,1.459 1.691,-1.459 c 0.126,-0.123 0.287,-0.174 0.521,-0.174 l 0.483,0 c 0.271,0 0.326,0.092 0.161,0.268 L 3.519,1.887 C 3.322,2.082 3.122,2.174 2.927,2.174 l -0.146,0 C 2.476,2.174 2.424,2.158 2.153,1.887 L 0,0 Z"
             style="fill:#ffffff;fill-opacity:1;fill-rule:nonzero;stroke:none"
             id="path70"
             inkscape:connector-curvature="0" /></g><g
           id="g72"
           transform="translate(328.5791,111.2451)"><path
             d="m 0,0 c 0,0.502 -0.16,0.662 -0.663,0.662 l -0.106,0 C -1.274,0.662 -1.436,0.502 -1.436,0 l 0,-0.127 c 0,-0.506 0.162,-0.666 0.667,-0.666 l 0.106,0 C -0.16,-0.793 0,-0.633 0,-0.127 L 0,0 Z"
             style="fill:#ffffff;fill-opacity:1;fill-rule:nonzero;stroke:none"
             id="path74"
             inkscape:connector-curvature="0" /></g><g
           id="g76"
           transform="translate(328.1494,108.6006)"><path
             d="M 0,0 -0.574,0 C -0.79,0 -0.896,-0.105 -0.896,-0.322 l 0,-8.582 c 0,-0.217 0.106,-0.326 0.322,-0.326 l 0.574,0 c 0.218,0 0.324,0.109 0.324,0.326 l 0,8.582 C 0.324,-0.105 0.218,0 0,0"
             style="fill:#ffffff;fill-opacity:1;fill-rule:nonzero;stroke:none"
             id="path78"
             inkscape:connector-curvature="0" /></g><g
           id="g80"
           transform="translate(299.7529,100.2686)"><path
             d="M 0,0 C -1.004,0 -1.687,0.164 -2.03,0.506 -2.389,0.832 -2.57,1.51 -2.57,2.549 l 0,4.676 2.605,0 c 0.216,0 0.321,0.107 0.321,0.318 l 0,0.467 c 0,0.217 -0.105,0.322 -0.321,0.322 l -2.605,0 0,1.84 c 0,0.23 -0.051,0.316 -0.322,0.316 l -0.556,0 c -0.216,0 -0.323,-0.105 -0.323,-0.316 l 0,-1.84 -1.708,0 c -0.213,0 -0.323,-0.105 -0.323,-0.322 l 0,-0.467 c 0,-0.211 0.11,-0.318 0.323,-0.318 l 1.708,0 0,-4.711 c 0,-1.416 0.288,-2.385 0.844,-2.907 0.558,-0.541 1.527,-0.773 2.927,-0.753 0.231,0 0.321,0.087 0.321,0.322 l 0,0.482 C 0.321,-0.105 0.216,0 0,0"
             style="fill:#ffffff;fill-opacity:1;fill-rule:nonzero;stroke:none"
             id="path82"
             inkscape:connector-curvature="0" /></g><g
           id="g84"
           transform="translate(325.1904,108.6006)"><path
             d="m 0,0 -2.605,0 0,1.84 c 0,0.23 -0.055,0.316 -0.326,0.316 l -0.555,0 C -3.701,2.156 -3.81,2.051 -3.81,1.84 l 0,-1.84 -1.706,0 c -0.215,0 -0.322,-0.105 -0.322,-0.322 l 0,-0.467 c 0,-0.211 0.107,-0.318 0.322,-0.318 l 1.706,0 0,-4.711 c 0,-1.416 0.287,-2.385 0.844,-2.907 0.557,-0.541 1.528,-0.773 2.927,-0.754 0.234,0 0.325,0.088 0.325,0.323 l 0,0.482 c 0,0.236 -0.108,0.342 -0.325,0.342 -1.005,0 -1.688,0.164 -2.029,0.506 -0.357,0.326 -0.537,1.004 -0.537,2.043 l 0,4.676 2.605,0 c 0.215,0 0.321,0.107 0.321,0.318 l 0,0.467 C 0.321,-0.105 0.215,0 0,0"
             style="fill:#ffffff;fill-opacity:1;fill-rule:nonzero;stroke:none"
             id="path86"
             inkscape:connector-curvature="0" /></g><g
           id="g88"
           transform="translate(307.9043,104.5986)"><path
             d="m 0,0 -5.551,0 0,0.629 c 0,1.635 0.973,2.603 2.766,2.603 C -0.969,3.232 0,2.264 0,0.629 L 0,0 Z m -2.785,4.271 c -2.585,0 -3.966,-1.4 -3.966,-3.789 l 0,-2.334 c 0,-2.24 1.291,-3.625 3.895,-3.625 1.851,0 3.127,0.649 3.844,1.944 0.146,0.23 0.107,0.39 -0.126,0.517 L 0.486,-2.82 c -0.2,0.109 -0.376,0.074 -0.521,-0.125 -0.558,-0.985 -1.491,-1.491 -2.821,-1.491 -1.742,0 -2.695,0.903 -2.695,2.459 l 0,1.043 6.214,0 c 0.36,0 0.541,0.163 0.541,0.502 l 0,0.989 c 0,2.244 -1.385,3.714 -3.989,3.714"
             style="fill:#ffffff;fill-opacity:1;fill-rule:nonzero;stroke:none"
             id="path90"
             inkscape:connector-curvature="0" /></g><g
           id="g92"
           transform="translate(345.999,102.4053)"><path
             d="m 0,0 c 0,-1.363 -1.044,-2.188 -2.75,-2.188 -1.652,0 -2.729,0.825 -2.729,2.188 l 0,3.158 c 0,1.369 1.061,2.213 2.729,2.213 C -1.044,5.371 0,4.527 0,3.158 L 0,0 Z m 1.219,3.158 c 0,2.069 -1.508,3.311 -3.969,3.311 -2.44,0 -3.932,-1.242 -3.932,-3.311 l 0,-3.158 c 0,-2.027 1.492,-3.287 3.932,-3.287 2.461,0 3.969,1.224 3.969,3.287 l 0,3.158 z"
             style="fill:#ffffff;fill-opacity:1;fill-rule:nonzero;stroke:none"
             id="path94"
             inkscape:connector-curvature="0" /></g><g
           id="g96"
           transform="translate(292.7148,100.7002)"><path
             d="M 0,0 0,7.578 C 0,7.795 -0.109,7.9 -0.325,7.9 l -0.572,0 c -0.217,0 -0.325,-0.105 -0.325,-0.322 l 0,-7.166 c 0,-0.228 -0.107,-0.412 -0.323,-0.498 -0.663,-0.268 -1.436,-0.393 -2.335,-0.393 -1.67,0 -2.514,0.821 -2.514,2.456 l 0,5.601 c 0,0.236 -0.054,0.322 -0.326,0.322 l -0.552,0 c -0.236,0 -0.327,-0.086 -0.327,-0.322 l 0,-5.656 c 0,-2.334 1.186,-3.5 3.559,-3.5 1.275,0 2.404,0.197 3.357,0.598 C -0.125,-0.754 0,-0.553 0,0"
             style="fill:#ffffff;fill-opacity:1;fill-rule:nonzero;stroke:none"
             id="path98"
             inkscape:connector-curvature="0" /></g><g
           id="g100"
           transform="translate(281.5693,100.9346)"><path
             d="m 0,0 c 0,-0.336 -0.054,-0.396 -0.34,-0.521 -0.541,-0.192 -1.26,-0.286 -2.174,-0.286 -1.992,0 -2.548,0.573 -2.548,1.795 0,1.241 0.697,1.758 2.583,1.758 0.576,0 1.401,-0.055 2.479,-0.16 L 0,0 Z M -2.388,7.936 C -4.129,7.936 -5.334,7.312 -6,6.053 -6.106,5.818 -6.052,5.678 -5.818,5.586 l 0.429,-0.18 c 0.163,-0.086 0.327,-0.039 0.452,0.145 0.482,0.879 1.33,1.31 2.514,1.31 C -0.611,6.861 0,5.959 0,4.402 L 0,3.574 c -1.078,0.125 -1.866,0.176 -2.353,0.176 -2.855,0 -3.95,-0.748 -3.95,-2.781 0,-0.953 0.267,-1.651 0.824,-2.098 0.557,-0.471 1.565,-0.683 3.056,-0.683 1.275,0 2.263,0.158 2.982,0.466 0.502,0.217 0.646,0.393 0.646,1.026 l 0,4.703 c 0,2.176 -0.937,3.553 -3.593,3.553"
             style="fill:#ffffff;fill-opacity:1;fill-rule:nonzero;stroke:none"
             id="path102"
             inkscape:connector-curvature="0" /></g><g
           id="g104"
           transform="translate(331.4111,89.7744)"><path
             d="m 0,0 -2.604,0 0,1.832 c 0,0.236 -0.055,0.322 -0.326,0.322 l -0.557,0 c -0.216,0 -0.322,-0.105 -0.322,-0.322 L -3.809,0 -5.516,0 C -5.73,0 -5.842,-0.105 -5.842,-0.322 l 0,-0.467 c 0,-0.215 0.112,-0.32 0.326,-0.32 l 1.707,0 0,-4.711 c 0,-1.416 0.287,-2.387 0.844,-2.905 0.557,-0.537 1.526,-0.775 2.926,-0.755 0.235,0 0.326,0.085 0.326,0.324 l 0,0.482 c 0,0.236 -0.11,0.342 -0.326,0.342 -1.004,0 -1.687,0.162 -2.027,0.502 -0.36,0.326 -0.538,1.008 -0.538,2.053 l 0,4.668 2.604,0 c 0.212,0 0.322,0.105 0.322,0.32 l 0,0.467 C 0.322,-0.105 0.212,0 0,0"
             style="fill:#ffffff;fill-opacity:1;fill-rule:nonzero;stroke:none"
             id="path106"
             inkscape:connector-curvature="0" /></g><g
           id="g108"
           transform="translate(334.7305,89.7744)"><path
             d="m 0,0 -0.577,0 c -0.216,0 -0.321,-0.105 -0.321,-0.322 l 0,-8.586 c 0,-0.213 0.105,-0.322 0.321,-0.322 l 0.577,0 c 0.216,0 0.321,0.109 0.321,0.322 l 0,8.586 C 0.321,-0.105 0.216,0 0,0"
             style="fill:#ffffff;fill-opacity:1;fill-rule:nonzero;stroke:none"
             id="path110"
             inkscape:connector-curvature="0" /></g><g
           id="g112"
           transform="translate(278.252,93.0771)"><path
             d="m 0,0 -0.106,0 c -0.502,0 -0.663,-0.16 -0.663,-0.658 l 0,-0.129 c 0,-0.502 0.161,-0.664 0.663,-0.664 l 0.106,0 c 0.506,0 0.667,0.162 0.667,0.664 l 0,0.129 C 0.667,-0.16 0.506,0 0,0"
             style="fill:#ffffff;fill-opacity:1;fill-rule:nonzero;stroke:none"
             id="path114"
             inkscape:connector-curvature="0" /></g><g
           id="g116"
           transform="translate(334.499,93.0771)"><path
             d="m 0,0 -0.11,0 c -0.502,0 -0.663,-0.16 -0.663,-0.658 l 0,-0.129 c 0,-0.502 0.161,-0.664 0.663,-0.664 l 0.11,0 c 0.502,0 0.662,0.162 0.662,0.664 l 0,0.129 C 0.662,-0.16 0.502,0 0,0"
             style="fill:#ffffff;fill-opacity:1;fill-rule:nonzero;stroke:none"
             id="path118"
             inkscape:connector-curvature="0" /></g><g
           id="g120"
           transform="translate(322.6475,82.1104)"><path
             d="m 0,0 c 0,-0.342 -0.055,-0.396 -0.341,-0.521 -0.537,-0.198 -1.255,-0.288 -2.173,-0.288 -1.993,0 -2.549,0.573 -2.549,1.793 0,1.239 0.698,1.762 2.584,1.762 0.577,0 1.401,-0.057 2.479,-0.162 L 0,0 Z M -2.389,7.936 C -4.13,7.936 -5.334,7.307 -5.997,6.049 -6.107,5.816 -6.053,5.672 -5.816,5.582 L -5.388,5.4 c 0.163,-0.086 0.325,-0.031 0.45,0.151 0.484,0.875 1.33,1.304 2.514,1.304 C -0.611,6.855 0,5.963 0,4.396 L 0,3.572 c -1.078,0.127 -1.867,0.178 -2.354,0.178 -2.855,0 -3.949,-0.754 -3.949,-2.781 0,-0.957 0.268,-1.653 0.827,-2.1 0.557,-0.467 1.562,-0.685 3.052,-0.685 1.276,0 2.264,0.16 2.982,0.47 0.502,0.215 0.647,0.389 0.647,1.02 l 0,4.703 c 0,2.178 -0.934,3.559 -3.594,3.559"
             style="fill:#ffffff;fill-opacity:1;fill-rule:nonzero;stroke:none"
             id="path122"
             inkscape:connector-curvature="0" /></g><g
           id="g124"
           transform="translate(345.1455,89.7744)"><path
             d="M 0,0 -0.432,0 C -0.809,0 -0.914,-0.051 -1.004,-0.322 L -3.448,-6.268 C -3.539,-6.5 -3.627,-6.807 -3.734,-7.166 -3.845,-7.539 -3.915,-7.756 -3.933,-7.811 l -0.053,0 c -0.02,0.055 -0.09,0.272 -0.2,0.645 -0.126,0.381 -0.213,0.682 -0.302,0.918 l -2.461,5.926 C -7.042,-0.051 -7.13,0 -7.507,0 L -7.92,0 c -0.342,0 -0.396,-0.07 -0.271,-0.377 l 3.593,-8.602 c 0.09,-0.197 0.236,-0.302 0.467,-0.302 l 0.341,0 c 0.198,0 0.361,0.105 0.451,0.302 l 3.59,8.622 C 0.376,-0.07 0.306,0 0,0"
             style="fill:#ffffff;fill-opacity:1;fill-rule:nonzero;stroke:none"
             id="path126"
             inkscape:connector-curvature="0" /></g><g
           id="g128"
           transform="translate(315.1221,90.0459)"><path
             d="m 0,0 -0.557,0 c -1.255,-0.016 -2.334,-0.217 -3.252,-0.557 -0.517,-0.232 -0.682,-0.447 -0.682,-1.009 l 0,-7.614 c 0,-0.213 0.109,-0.322 0.325,-0.322 l 0.572,0 c 0.217,0 0.326,0.109 0.326,0.322 l 0,7.227 c 0,0.23 0.106,0.371 0.306,0.463 0.683,0.25 1.472,0.375 2.37,0.375 l 0.592,0 c 0.216,0 0.322,0.111 0.322,0.326 l 0,0.467 C 0.322,-0.105 0.216,0 0,0"
             style="fill:#ffffff;fill-opacity:1;fill-rule:nonzero;stroke:none"
             id="path130"
             inkscape:connector-curvature="0" /></g><g
           id="g132"
           transform="translate(278.4873,89.7744)"><path
             d="m 0,0 -0.576,0 c -0.215,0 -0.322,-0.105 -0.322,-0.322 l 0,-8.586 c 0,-0.213 0.107,-0.322 0.322,-0.322 l 0.576,0 c 0.216,0 0.321,0.109 0.321,0.322 l 0,8.586 C 0.321,-0.105 0.216,0 0,0"
             style="fill:#ffffff;fill-opacity:1;fill-rule:nonzero;stroke:none"
             id="path134"
             inkscape:connector-curvature="0" /></g><g
           id="g136"
           transform="translate(298.0107,89.7744)"><path
             d="m 0,0 -2.604,0 0,1.832 c 0,0.236 -0.055,0.322 -0.322,0.322 l -0.557,0 c -0.216,0 -0.326,-0.105 -0.326,-0.322 l 0,-1.832 -1.705,0 c -0.213,0 -0.323,-0.105 -0.323,-0.322 l 0,-0.467 c 0,-0.215 0.11,-0.32 0.323,-0.32 l 1.705,0 0,-4.711 c 0,-1.416 0.29,-2.387 0.847,-2.905 0.554,-0.537 1.526,-0.775 2.927,-0.755 0.231,0 0.322,0.085 0.322,0.324 l 0,0.482 c 0,0.236 -0.106,0.342 -0.322,0.342 -1.006,0 -1.691,0.162 -2.028,0.502 -0.361,0.326 -0.541,1.008 -0.541,2.053 l 0,4.668 2.604,0 c 0.216,0 0.322,0.105 0.322,0.32 l 0,0.467 C 0.322,-0.105 0.216,0 0,0"
             style="fill:#ffffff;fill-opacity:1;fill-rule:nonzero;stroke:none"
             id="path138"
             inkscape:connector-curvature="0" /></g><g
           id="g140"
           transform="translate(286.8076,90.0459)"><path
             d="m 0,0 c -1.24,0 -2.354,-0.197 -3.343,-0.613 -0.556,-0.231 -0.682,-0.422 -0.682,-0.985 l 0,-7.582 c 0,-0.213 0.11,-0.322 0.326,-0.322 l 0.572,0 c 0.216,0 0.324,0.109 0.324,0.322 l 0,7.227 c 0,0.211 0.088,0.355 0.269,0.443 0.737,0.27 1.546,0.395 2.388,0.395 1.671,0 2.515,-0.811 2.515,-2.444 l 0,-5.621 c 0,-0.228 0.09,-0.322 0.322,-0.322 l 0.557,0 c 0.218,0 0.325,0.109 0.325,0.322 l 0,5.66 C 3.573,-1.166 2.389,0 0,0"
             style="fill:#ffffff;fill-opacity:1;fill-rule:nonzero;stroke:none"
             id="path142"
             inkscape:connector-curvature="0" /></g><g
           id="g144"
           transform="translate(306.8447,85.7744)"><path
             d="m 0,0 -5.551,0 0,0.627 c 0,1.631 0.973,2.609 2.766,2.609 C -0.969,3.236 0,2.258 0,0.627 L 0,0 Z m -2.785,4.271 c -2.585,0 -3.966,-1.4 -3.966,-3.789 l 0,-2.334 c 0,-2.248 1.291,-3.628 3.896,-3.628 1.851,0 3.126,0.646 3.843,1.941 0.146,0.23 0.107,0.393 -0.125,0.521 l -0.377,0.196 c -0.199,0.111 -0.376,0.072 -0.521,-0.125 -0.557,-0.989 -1.49,-1.49 -2.82,-1.49 -1.743,0 -2.696,0.898 -2.696,2.458 l 0,1.042 6.214,0 c 0.361,0 0.541,0.16 0.541,0.505 l 0,0.989 c 0,2.24 -1.384,3.714 -3.989,3.714"
             style="fill:#ffffff;fill-opacity:1;fill-rule:nonzero;stroke:none"
             id="path146"
             inkscape:connector-curvature="0" /></g><g
           id="g148"
           transform="translate(353.1123,83.5967)"><path
             d="m 0,0 c 0,-1.365 -1.043,-2.189 -2.75,-2.189 -1.651,0 -2.729,0.824 -2.729,2.189 l 0,3.158 c 0,1.369 1.061,2.211 2.729,2.211 C -1.043,5.369 0,4.527 0,3.158 L 0,0 Z m -2.75,6.469 c -2.439,0 -3.931,-1.244 -3.931,-3.311 l 0,-3.158 c 0,-2.029 1.492,-3.287 3.931,-3.287 2.462,0 3.971,1.223 3.971,3.287 l 0,3.158 c 0,2.067 -1.509,3.311 -3.971,3.311"
             style="fill:#ffffff;fill-opacity:1;fill-rule:nonzero;stroke:none"
             id="path150"
             inkscape:connector-curvature="0" /></g><g
           id="g152"
           transform="translate(78.6426,82.2705)"><path
             d="m 0,0 c -0.776,-0.805 -1.726,-1.205 -2.824,-1.205 -1.126,0 -2.103,0.4 -2.878,1.205 -0.802,0.773 -1.202,1.75 -1.202,2.875 0,1.127 0.4,2.096 1.202,2.875 0.775,0.777 1.752,1.174 2.878,1.174 C -1.726,6.924 -0.776,6.527 0,5.75 0.777,4.951 1.176,4.002 1.176,2.875 1.176,1.75 0.777,0.801 0,0 m -2.852,7.725 c -1.326,0 -2.475,-0.471 -3.424,-1.424 -0.977,-0.946 -1.452,-2.1 -1.452,-3.426 0,-1.326 0.475,-2.479 1.452,-3.428 0.949,-0.949 2.098,-1.424 3.424,-1.424 1.326,0 2.479,0.475 3.425,1.424 0.926,0.949 1.405,2.102 1.405,3.428 0,1.326 -0.479,2.48 -1.429,3.426 -0.949,0.953 -2.075,1.424 -3.401,1.424"
             style="fill:#ffffff;fill-opacity:1;fill-rule:nonzero;stroke:none"
             id="path154"
             inkscape:connector-curvature="0" /></g><g
           id="g156"
           transform="translate(76.2656,85.0947)"><path
             d="m 0,0 -1.699,0 0,1.852 1.699,0 C 0.675,1.852 1.004,1.549 1.004,0.926 1.004,0.303 0.675,0 0,0 m 1.777,0.926 c 0,1.023 -0.651,1.648 -1.75,1.648 l -2.2,0 C -2.35,2.574 -2.45,2.498 -2.45,2.326 l 0,-4.629 c 0,-0.125 0.077,-0.172 0.2,-0.172 l 0.352,0 c 0.125,0 0.199,0.047 0.199,0.172 l 0,1.629 1.526,0 0.926,-1.629 c 0.075,-0.125 0.173,-0.172 0.321,-0.172 l 0.354,0 c 0.223,0 0.298,0.102 0.173,0.27 L 0.651,-0.6 c 0.751,0.176 1.126,0.702 1.126,1.526"
             style="fill:#ffffff;fill-opacity:1;fill-rule:nonzero;stroke:none"
             id="path158"
             inkscape:connector-curvature="0" /></g><g
           id="g160"
           transform="translate(245.1787,168.6841)"><path
             d="M 0,0 C 9.073,0 16.425,7.352 16.425,16.42 16.425,25.49 9.073,32.85 0,32.85 -9.069,32.85 -16.421,25.49 -16.421,16.42 -16.421,7.352 -9.069,0 0,0"
             style="fill:#ffffff;fill-opacity:1;fill-rule:nonzero;stroke:none"
             id="path162"
             inkscape:connector-curvature="0" /></g><g
           id="g164"
           transform="translate(178.8799,105.7021)"><path
             d="m 0,0 c -9.069,0 -16.425,7.354 -16.425,16.428 0,9.074 7.356,16.427 16.425,16.427 9.073,0 16.425,-7.353 16.425,-16.427 C 16.425,7.354 9.073,0 0,0 m -65.931,0.059 c -9.069,0 -16.426,7.355 -16.426,16.427 0,9.075 7.357,16.424 16.426,16.424 9.074,0 16.429,-7.349 16.429,-16.424 0,-9.072 -7.355,-16.427 -16.429,-16.427 M 77.07,58.38 l -21.539,0 c -0.675,0 -1.333,-0.069 -1.973,-0.187 -0.642,0.118 -1.299,0.187 -1.974,0.187 l -21.536,0 c -3.958,0 -7.422,-2.111 -9.328,-5.264 -6.117,3.464 -13.18,5.452 -20.712,5.452 -13.36,0 -25.259,-6.235 -32.969,-15.946 -7.709,9.711 -19.607,15.946 -32.97,15.946 -23.244,0 -42.081,-18.844 -42.081,-42.082 0,-23.246 18.837,-42.08 42.081,-42.08 13.363,0 25.261,6.233 32.97,15.942 7.71,-9.709 19.609,-15.942 32.969,-15.942 7.532,0 14.595,1.987 20.712,5.449 1.906,-3.158 5.37,-5.263 9.328,-5.263 l 21.536,0 c 0.675,0 1.332,0.07 1.974,0.187 0.64,-0.117 1.298,-0.187 1.973,-0.187 l 21.539,0 c 6.014,0 10.89,4.875 10.89,10.892 l 0,62.01 c 0,6.013 -4.876,10.886 -10.89,10.886"
             style="fill:#ffffff;fill-opacity:1;fill-rule:nonzero;stroke:none"
             id="path166"
             inkscape:connector-curvature="0" /></g></g></g><g
       id="g168"><g
         id="g170"><g
           id="g176"><g
             id="g178"><path
               d="m 331.659,131.489 c -0.232,0 -0.322,-0.09 -0.322,-0.32 l 0,0 0,-12.649 c 0,-0.23 0.09,-0.319 0.322,-0.319 l 0,0 0.557,0 c 0.269,0 0.325,0.089 0.325,0.319 l 0,0 0,12.649 c 0,0.23 -0.056,0.32 -0.325,0.32 l 0,0 -0.557,0 z m -24.277,-0.751 c -0.502,0 -0.662,-0.167 -0.662,-0.665 l 0,0 0,-0.128 c 0,-0.503 0.16,-0.664 0.662,-0.664 l 0,0 0.11,0 c 0.502,0 0.663,0.161 0.663,0.664 l 0,0 0,0.128 c 0,0.498 -0.161,0.665 -0.663,0.665 l 0,0 -0.11,0 z m -13.933,0 c -0.503,0 -0.663,-0.167 -0.663,-0.665 l 0,0 0,-0.128 c 0,-0.503 0.16,-0.664 0.663,-0.664 l 0,0 0.106,0 c 0.506,0 0.667,0.161 0.667,0.664 l 0,0 0,0.128 c 0,0.498 -0.161,0.665 -0.667,0.665 l 0,0 -0.106,0 z m 28.048,-4.924 c -0.108,-0.233 -0.053,-0.377 0.177,-0.467 l 0,0 0.432,-0.18 c 0.161,-0.088 0.326,-0.035 0.451,0.145 l 0,0 c 0.483,0.879 1.329,1.31 2.511,1.31 l 0,0 c 1.816,0 2.427,-0.898 2.427,-2.457 l 0,0 0,-0.826 c -1.077,0.121 -1.865,0.175 -2.352,0.175 l 0,0 c -2.856,0 -3.951,-0.753 -3.951,-2.781 l 0,0 c 0,-0.953 0.268,-1.652 0.824,-2.103 l 0,0 c 0.557,-0.467 1.563,-0.681 3.052,-0.681 l 0,0 c 1.278,0 2.266,0.16 2.986,0.466 l 0,0 c 0.502,0.215 0.643,0.397 0.643,1.023 l 0,0 0,4.707 c 0,2.17 -0.934,3.555 -3.59,3.555 l 0,0 c -1.741,0 -2.946,-0.627 -3.61,-1.886 m 0.935,-5.065 c 0,1.241 0.698,1.762 2.586,1.762 l 0,0 c 0.571,0 1.4,-0.055 2.477,-0.162 l 0,0 0,-2.584 c 0,-0.346 -0.053,-0.397 -0.34,-0.522 l 0,0 c -0.54,-0.201 -1.26,-0.287 -2.174,-0.287 l 0,0 c -1.992,0 -2.549,0.572 -2.549,1.793 m -10.651,6.34 c -0.558,-0.232 -0.683,-0.428 -0.683,-0.988 l 0,0 0,-7.581 c 0,-0.214 0.109,-0.319 0.324,-0.319 l 0,0 0.573,0 c 0.217,0 0.327,0.105 0.327,0.319 l 0,0 0,7.227 c 0,0.211 0.089,0.354 0.266,0.444 l 0,0 c 0.737,0.269 1.546,0.396 2.389,0.396 l 0,0 c 1.674,0 2.516,-0.805 2.516,-2.442 l 0,0 0,-5.625 c 0,-0.23 0.091,-0.319 0.327,-0.319 l 0,0 0.552,0 c 0.22,0 0.326,0.105 0.326,0.319 l 0,0 0,5.661 c 0,2.355 -1.185,3.519 -3.576,3.519 l 0,0 c -1.239,0 -2.353,-0.195 -3.341,-0.611 m -14.884,-3.068 0,-2.354 c 0,-2.33 1.184,-3.504 3.554,-3.504 l 0,0 c 0.919,0 1.867,0.182 2.84,0.543 l 0,0 0,-1.119 c 0,-1.808 -0.883,-2.731 -2.624,-2.731 l 0,0 c -1.13,0 -1.958,0.487 -2.477,1.44 l 0,0 c -0.129,0.201 -0.306,0.252 -0.52,0.127 l 0,0 -0.396,-0.197 c -0.234,-0.125 -0.287,-0.309 -0.126,-0.542 l 0,0 c 0.699,-1.275 1.884,-1.921 3.554,-1.921 l 0,0 c 2.533,0 3.79,1.295 3.79,3.879 l 0,0 0,8.533 c 0,0.592 -0.107,0.717 -0.683,0.988 l 0,0 c -0.859,0.357 -1.868,0.537 -3.033,0.537 l 0,0 c -2.586,0 -3.879,-1.225 -3.879,-3.679 m 1.22,-2.319 0,2.295 c 0,1.727 0.915,2.59 2.73,2.59 l 0,0 c 0.789,0 1.491,-0.112 2.103,-0.342 l 0,0 c 0.302,-0.121 0.341,-0.179 0.341,-0.463 l 0,0 0,-5.979 c -0.918,-0.349 -1.816,-0.525 -2.695,-0.525 l 0,0 c -1.652,0 -2.479,0.809 -2.479,2.424 m -8.246,5.998 c -1.259,-0.02 -2.334,-0.215 -3.252,-0.556 l 0,0 c -0.522,-0.237 -0.683,-0.447 -0.683,-1.005 l 0,0 0,-7.619 c 0,-0.214 0.108,-0.319 0.327,-0.319 l 0,0 0.572,0 c 0.216,0 0.323,0.105 0.323,0.319 l 0,0 0,7.227 c 0,0.227 0.108,0.377 0.305,0.463 l 0,0 c 0.683,0.25 1.475,0.377 2.373,0.377 l 0,0 0.593,0 c 0.212,0 0.321,0.11 0.321,0.32 l 0,0 0,0.471 c 0,0.217 -0.109,0.322 -0.321,0.322 l 0,0 -0.558,0 z m -14.604,-3.306 0,-3.159 c 0,-2.027 1.49,-3.286 3.93,-3.286 l 0,0 c 2.462,0 3.97,1.22 3.97,3.286 l 0,0 0,3.159 c 0,2.066 -1.508,3.306 -3.97,3.306 l 0,0 c -2.44,0 -3.93,-1.24 -3.93,-3.306 m 1.201,-3.159 0,3.159 c 0,1.368 1.062,2.213 2.729,2.213 l 0,0 c 1.707,0 2.75,-0.845 2.75,-2.213 l 0,0 0,-3.159 c 0,-1.365 -1.043,-2.193 -2.75,-2.193 l 0,0 c -1.651,0 -2.729,0.828 -2.729,2.193 m 30.679,6.193 c -0.212,0 -0.322,-0.105 -0.322,-0.319 l 0,0 0,-8.589 c 0,-0.214 0.11,-0.319 0.322,-0.319 l 0,0 0.576,0 c 0.216,0 0.323,0.105 0.323,0.319 l 0,0 0,8.589 c 0,0.214 -0.107,0.319 -0.323,0.319 l 0,0 -0.576,0 z m -13.933,0 c -0.213,0 -0.323,-0.105 -0.323,-0.319 l 0,0 0,-8.589 c 0,-0.214 0.11,-0.319 0.323,-0.319 l 0,0 0.576,0 c 0.216,0 0.325,0.105 0.325,0.319 l 0,0 0,8.589 c 0,0.214 -0.109,0.319 -0.325,0.319 l 0,0 -0.576,0 z"
               style="fill:url(#linearGradient180);stroke:none"
               id="path188"
               inkscape:connector-curvature="0" /></g></g></g></g><g
       id="g190"><g
         id="g192"><g
           id="g198"><g
             id="g200"><path
               d="m 305.084,112.214 c -0.305,0 -0.357,-0.015 -0.628,-0.287 l 0,0 -2.153,-1.887 c -0.165,-0.176 -0.111,-0.268 0.161,-0.268 l 0,0 0.447,0 c 0.215,0 0.376,0.051 0.504,0.175 l 0,0 1.704,1.459 1.691,-1.459 c 0.125,-0.124 0.287,-0.175 0.521,-0.175 l 0,0 0.483,0 c 0.271,0 0.325,0.092 0.161,0.268 l 0,0 -2.154,1.887 c -0.196,0.195 -0.396,0.287 -0.591,0.287 l 0,0 -0.146,0 z m 22.727,-0.307 c -0.506,0 -0.667,-0.16 -0.667,-0.662 l 0,0 0,-0.127 c 0,-0.505 0.161,-0.666 0.667,-0.666 l 0,0 0.105,0 c 0.503,0 0.663,0.161 0.663,0.666 l 0,0 0,0.127 c 0,0.502 -0.16,0.662 -0.663,0.662 l 0,0 -0.105,0 z m -6.107,-1.15 c -0.215,0 -0.323,-0.106 -0.323,-0.316 l 0,0 0,-1.841 -1.706,0 c -0.216,0 -0.323,-0.105 -0.323,-0.322 l 0,0 0,-0.466 c 0,-0.212 0.107,-0.319 0.323,-0.319 l 0,0 1.706,0 0,-4.711 c 0,-1.416 0.286,-2.384 0.843,-2.906 l 0,0 c 0.557,-0.541 1.528,-0.773 2.927,-0.754 l 0,0 c 0.235,0 0.326,0.088 0.326,0.323 l 0,0 0,0.482 c 0,0.236 -0.109,0.342 -0.326,0.342 l 0,0 c -1.004,0 -1.687,0.164 -2.029,0.506 l 0,0 c -0.357,0.326 -0.537,1.003 -0.537,2.043 l 0,0 0,4.675 2.606,0 c 0.214,0 0.321,0.107 0.321,0.319 l 0,0 0,0.466 c 0,0.217 -0.107,0.322 -0.321,0.322 l 0,0 -2.606,0 0,1.841 c 0,0.23 -0.055,0.316 -0.326,0.316 l 0,0 -0.555,0 z m -25.4,0 c -0.215,0 -0.323,-0.106 -0.323,-0.316 l 0,0 0,-1.841 -1.706,0 c -0.214,0 -0.324,-0.105 -0.324,-0.322 l 0,0 0,-0.466 c 0,-0.212 0.11,-0.319 0.324,-0.319 l 0,0 1.706,0 0,-4.711 c 0,-1.416 0.288,-2.384 0.845,-2.906 l 0,0 c 0.557,-0.541 1.527,-0.773 2.927,-0.754 l 0,0 c 0.231,0 0.321,0.088 0.321,0.323 l 0,0 0,0.482 c 0,0.236 -0.105,0.342 -0.321,0.342 l 0,0 c -1.004,0 -1.687,0.164 -2.03,0.506 l 0,0 c -0.358,0.326 -0.54,1.003 -0.54,2.043 l 0,0 0,4.675 2.605,0 c 0.216,0 0.321,0.107 0.321,0.319 l 0,0 0,0.466 c 0,0.217 -0.105,0.322 -0.321,0.322 l 0,0 -2.605,0 0,1.841 c 0,0.23 -0.052,0.316 -0.322,0.316 l 0,0 -0.557,0 z m 43.013,-5.193 0,-3.158 c 0,-2.028 1.491,-3.288 3.932,-3.288 l 0,0 c 2.461,0 3.969,1.225 3.969,3.288 l 0,0 0,3.158 c 0,2.068 -1.508,3.31 -3.969,3.31 l 0,0 c -2.441,0 -3.932,-1.242 -3.932,-3.31 m 1.203,-3.158 0,3.158 c 0,1.369 1.061,2.213 2.729,2.213 l 0,0 c 1.706,0 2.75,-0.844 2.75,-2.213 l 0,0 0,-3.158 c 0,-1.364 -1.044,-2.188 -2.75,-2.188 l 0,0 c -1.652,0 -2.729,0.824 -2.729,2.188 m -10.341,2.931 0,-2.679 c 0,-2.225 1.331,-3.536 3.845,-3.536 l 0,0 c 2.028,0 3.303,0.84 3.859,2.511 l 0,0 c 0.091,0.235 0.017,0.377 -0.214,0.471 l 0,0 -0.467,0.141 c -0.234,0.054 -0.377,-0.011 -0.467,-0.215 l 0,0 c -0.376,-1.236 -1.275,-1.847 -2.676,-1.847 l 0,0 c -1.726,0 -2.679,0.918 -2.679,2.439 l 0,0 0,2.75 c 0,1.522 0.938,2.424 2.679,2.424 l 0,0 c 1.506,0 2.28,-0.538 2.656,-1.758 l 0,0 c 0.091,-0.219 0.235,-0.289 0.451,-0.219 l 0,0 0.467,0.161 c 0.215,0.093 0.285,0.236 0.215,0.47 l 0,0 c -0.486,1.618 -1.74,2.42 -3.754,2.42 l 0,0 c -2.584,0 -3.915,-1.308 -3.915,-3.533 m -18.819,2.926 c -0.557,-0.231 -0.683,-0.432 -0.683,-0.988 l 0,0 0,-7.578 c 0,-0.217 0.107,-0.327 0.322,-0.327 l 0,0 0.577,0 c 0.216,0 0.322,0.11 0.322,0.327 l 0,0 0,7.22 c 0,0.213 0.09,0.358 0.27,0.448 l 0,0 c 0.738,0.27 1.546,0.396 2.389,0.396 l 0,0 c 1.673,0 2.517,-0.805 2.517,-2.444 l 0,0 0,-5.62 c 0,-0.237 0.09,-0.327 0.322,-0.327 l 0,0 0.556,0 c 0.216,0 0.327,0.11 0.327,0.327 l 0,0 0,5.655 c 0,2.358 -1.19,3.518 -3.577,3.518 l 0,0 c -1.239,0 -2.353,-0.195 -3.342,-0.607 m -10.206,-3.182 0,-2.334 c 0,-2.24 1.29,-3.625 3.894,-3.625 l 0,0 c 1.851,0 3.126,0.648 3.845,1.944 l 0,0 c 0.145,0.23 0.106,0.39 -0.126,0.517 l 0,0 -0.377,0.195 c -0.199,0.11 -0.376,0.074 -0.521,-0.125 l 0,0 c -0.558,-0.984 -1.491,-1.49 -2.821,-1.49 l 0,0 c -1.742,0 -2.695,0.903 -2.695,2.459 l 0,0 0,1.043 6.215,0 c 0.36,0 0.541,0.162 0.541,0.502 l 0,0 0,0.988 c 0,2.245 -1.386,3.715 -3.99,3.715 l 0,0 c -2.585,0 -3.965,-1.4 -3.965,-3.789 m 1.199,0.146 c 0,1.635 0.973,2.604 2.766,2.604 l 0,0 c 1.816,0 2.785,-0.969 2.785,-2.604 l 0,0 0,-0.628 -5.551,0 0,0.628 z m -26.784,1.761 c -0.106,-0.235 -0.051,-0.376 0.182,-0.468 l 0,0 0.429,-0.18 c 0.164,-0.085 0.327,-0.038 0.452,0.145 l 0,0 c 0.483,0.88 1.33,1.311 2.515,1.311 l 0,0 c 1.811,0 2.422,-0.902 2.422,-2.459 l 0,0 0,-0.828 c -1.078,0.125 -1.866,0.175 -2.352,0.175 l 0,0 c -2.856,0 -3.95,-0.747 -3.95,-2.781 l 0,0 c 0,-0.953 0.266,-1.65 0.822,-2.098 l 0,0 c 0.558,-0.47 1.566,-0.683 3.058,-0.683 l 0,0 c 1.274,0 2.262,0.158 2.981,0.467 l 0,0 c 0.502,0.216 0.647,0.392 0.647,1.026 l 0,0 0,4.702 c 0,2.176 -0.938,3.553 -3.593,3.553 l 0,0 c -1.742,0 -2.947,-0.623 -3.613,-1.882 m 0.938,-5.065 c 0,1.24 0.697,1.758 2.584,1.758 l 0,0 c 0.575,0 1.4,-0.055 2.478,-0.16 l 0,0 0,-2.586 c 0,-0.337 -0.053,-0.397 -0.34,-0.522 l 0,0 c -0.541,-0.192 -1.26,-0.285 -2.173,-0.285 l 0,0 c -1.993,0 -2.549,0.572 -2.549,1.795 m 51.068,6.677 c -0.215,0 -0.322,-0.105 -0.322,-0.322 l 0,0 0,-8.581 c 0,-0.217 0.107,-0.327 0.322,-0.327 l 0,0 0.574,0 c 0.218,0 0.325,0.11 0.325,0.327 l 0,0 0,8.581 c 0,0.217 -0.107,0.322 -0.325,0.322 l 0,0 -0.574,0 z m -35.757,0 c -0.217,0 -0.325,-0.105 -0.325,-0.322 l 0,0 0,-7.166 c 0,-0.228 -0.107,-0.412 -0.323,-0.497 l 0,0 c -0.663,-0.269 -1.437,-0.394 -2.335,-0.394 l 0,0 c -1.67,0 -2.513,0.821 -2.513,2.455 l 0,0 0,5.602 c 0,0.237 -0.055,0.322 -0.327,0.322 l 0,0 -0.553,0 c -0.235,0 -0.326,-0.085 -0.326,-0.322 l 0,0 0,-5.656 c 0,-2.334 1.186,-3.5 3.559,-3.5 l 0,0 c 1.275,0 2.404,0.198 3.357,0.598 l 0,0 c 0.558,0.226 0.683,0.428 0.683,0.98 l 0,0 0,7.578 c 0,0.217 -0.11,0.322 -0.326,0.322 l 0,0 -0.571,0 z"
               style="fill:url(#linearGradient202);stroke:none"
               id="path208"
               inkscape:connector-curvature="0" /></g></g></g></g><g
       id="g210"><g
         id="g212"><g
           id="g218"><g
             id="g220"><path
               d="m 334.389,93.077 c -0.502,0 -0.664,-0.16 -0.664,-0.658 l 0,0 0,-0.129 c 0,-0.502 0.162,-0.664 0.664,-0.664 l 0,0 0.11,0 c 0.502,0 0.662,0.162 0.662,0.664 l 0,0 0,0.129 c 0,0.498 -0.16,0.658 -0.662,0.658 l 0,0 -0.11,0 z m -56.243,0 c -0.502,0 -0.663,-0.16 -0.663,-0.658 l 0,0 0,-0.129 c 0,-0.502 0.161,-0.664 0.663,-0.664 l 0,0 0.106,0 c 0.506,0 0.667,0.162 0.667,0.664 l 0,0 0,0.129 c 0,0.498 -0.161,0.658 -0.667,0.658 l 0,0 -0.106,0 z m 49.778,-1.148 c -0.216,0 -0.321,-0.106 -0.321,-0.322 l 0,0 0,-1.833 -1.708,0 c -0.215,0 -0.325,-0.105 -0.325,-0.322 l 0,0 0,-0.466 c 0,-0.215 0.11,-0.321 0.325,-0.321 l 0,0 1.708,0 0,-4.711 c 0,-1.416 0.286,-2.387 0.843,-2.905 l 0,0 c 0.557,-0.536 1.525,-0.774 2.926,-0.755 l 0,0 c 0.236,0 0.327,0.086 0.327,0.324 l 0,0 0,0.483 c 0,0.236 -0.111,0.342 -0.327,0.342 l 0,0 c -1.004,0 -1.687,0.162 -2.027,0.501 l 0,0 c -0.36,0.327 -0.538,1.008 -0.538,2.053 l 0,0 0,4.668 2.604,0 c 0.212,0 0.323,0.106 0.323,0.321 l 0,0 0,0.466 c 0,0.217 -0.111,0.322 -0.323,0.322 l 0,0 -2.604,0 0,1.833 c 0,0.236 -0.055,0.322 -0.326,0.322 l 0,0 -0.557,0 z m -33.396,0 c -0.216,0 -0.326,-0.106 -0.326,-0.322 l 0,0 0,-1.833 -1.705,0 c -0.213,0 -0.323,-0.105 -0.323,-0.322 l 0,0 0,-0.466 c 0,-0.215 0.11,-0.321 0.323,-0.321 l 0,0 1.705,0 0,-4.711 c 0,-1.416 0.291,-2.387 0.847,-2.905 l 0,0 c 0.553,-0.536 1.526,-0.774 2.927,-0.755 l 0,0 c 0.231,0 0.322,0.086 0.322,0.324 l 0,0 0,0.483 c 0,0.236 -0.106,0.342 -0.322,0.342 l 0,0 c -1.007,0 -1.691,0.162 -2.029,0.501 l 0,0 c -0.36,0.327 -0.541,1.008 -0.541,2.053 l 0,0 0,4.668 2.605,0 c 0.216,0 0.322,0.106 0.322,0.321 l 0,0 0,0.466 c 0,0.217 -0.106,0.322 -0.322,0.322 l 0,0 -2.605,0 0,1.833 c 0,0.236 -0.055,0.322 -0.321,0.322 l 0,0 -0.557,0 z m 51.904,-5.174 0,-3.159 c 0,-2.029 1.491,-3.286 3.93,-3.286 l 0,0 c 2.462,0 3.971,1.222 3.971,3.286 l 0,0 0,3.159 c 0,2.066 -1.509,3.311 -3.971,3.311 l 0,0 c -2.439,0 -3.93,-1.245 -3.93,-3.311 m 1.202,-3.159 0,3.159 c 0,1.369 1.06,2.211 2.728,2.211 l 0,0 c 1.707,0 2.75,-0.842 2.75,-2.211 l 0,0 0,-3.159 c 0,-1.365 -1.043,-2.189 -2.75,-2.189 l 0,0 c -1.651,0 -2.728,0.824 -2.728,2.189 m -30.983,4.564 c -0.111,-0.234 -0.056,-0.378 0.18,-0.468 l 0,0 0.429,-0.181 c 0.163,-0.086 0.324,-0.032 0.449,0.15 l 0,0 c 0.484,0.875 1.33,1.305 2.515,1.305 l 0,0 c 1.812,0 2.423,-0.893 2.423,-2.459 l 0,0 0,-0.824 c -1.078,0.127 -1.866,0.177 -2.353,0.177 l 0,0 c -2.856,0 -3.949,-0.753 -3.949,-2.781 l 0,0 c 0,-0.957 0.267,-1.652 0.827,-2.1 l 0,0 c 0.557,-0.466 1.561,-0.685 3.052,-0.685 l 0,0 c 1.275,0 2.263,0.16 2.981,0.47 l 0,0 c 0.502,0.215 0.647,0.389 0.647,1.02 l 0,0 0,4.703 c 0,2.178 -0.933,3.559 -3.593,3.559 l 0,0 c -1.742,0 -2.945,-0.629 -3.608,-1.886 m 0.933,-5.066 c 0,1.239 0.698,1.763 2.585,1.763 l 0,0 c 0.576,0 1.4,-0.057 2.478,-0.162 l 0,0 0,-2.584 c 0,-0.342 -0.055,-0.397 -0.341,-0.522 l 0,0 c -0.536,-0.198 -1.254,-0.288 -2.172,-0.288 l 0,0 c -1.993,0 -2.55,0.573 -2.55,1.793 m -3.019,6.952 c -1.255,-0.015 -2.333,-0.217 -3.251,-0.556 l 0,0 c -0.518,-0.233 -0.684,-0.448 -0.684,-1.01 l 0,0 0,-7.614 c 0,-0.212 0.11,-0.322 0.326,-0.322 l 0,0 0.573,0 c 0.216,0 0.325,0.11 0.325,0.322 l 0,0 0,7.227 c 0,0.23 0.106,0.371 0.306,0.462 l 0,0 c 0.683,0.251 1.472,0.376 2.37,0.376 l 0,0 0.592,0 c 0.215,0 0.323,0.111 0.323,0.326 l 0,0 0,0.467 c 0,0.217 -0.108,0.322 -0.323,0.322 l 0,0 -0.557,0 z m -14.472,-3.789 0,-2.334 c 0,-2.248 1.292,-3.629 3.896,-3.629 l 0,0 c 1.852,0 3.127,0.647 3.844,1.942 l 0,0 c 0.145,0.23 0.106,0.392 -0.125,0.521 l 0,0 -0.377,0.195 c -0.199,0.112 -0.376,0.072 -0.521,-0.125 l 0,0 c -0.557,-0.988 -1.49,-1.49 -2.821,-1.49 l 0,0 c -1.742,0 -2.695,0.899 -2.695,2.459 l 0,0 0,1.041 6.214,0 c 0.361,0 0.54,0.16 0.54,0.505 l 0,0 0,0.989 c 0,2.241 -1.383,3.715 -3.988,3.715 l 0,0 c -2.585,0 -3.967,-1.4 -3.967,-3.789 m 1.201,0.145 c 0,1.631 0.973,2.609 2.766,2.609 l 0,0 c 1.816,0 2.785,-0.978 2.785,-2.609 l 0,0 0,-0.627 -5.551,0 0,0.627 z m -17.829,3.031 c -0.557,-0.231 -0.683,-0.422 -0.683,-0.985 l 0,0 0,-7.582 c 0,-0.212 0.11,-0.322 0.326,-0.322 l 0,0 0.573,0 c 0.216,0 0.324,0.11 0.324,0.322 l 0,0 0,7.227 c 0,0.21 0.088,0.355 0.268,0.443 l 0,0 c 0.738,0.27 1.546,0.395 2.389,0.395 l 0,0 c 1.671,0 2.515,-0.811 2.515,-2.444 l 0,0 0,-5.621 c 0,-0.229 0.089,-0.322 0.322,-0.322 l 0,0 0.557,0 c 0.217,0 0.324,0.11 0.324,0.322 l 0,0 0,5.66 c 0,2.354 -1.184,3.52 -3.573,3.52 l 0,0 c -1.24,0 -2.353,-0.197 -3.342,-0.613 m 61.249,0.341 c -0.377,0 -0.483,-0.05 -0.572,-0.322 l 0,0 -2.444,-5.945 c -0.091,-0.233 -0.18,-0.54 -0.287,-0.899 l 0,0 c -0.11,-0.372 -0.181,-0.589 -0.199,-0.644 l 0,0 -0.053,0 c -0.019,0.055 -0.09,0.272 -0.199,0.644 l 0,0 c -0.126,0.381 -0.214,0.682 -0.303,0.918 l 0,0 -2.46,5.926 c -0.093,0.272 -0.181,0.322 -0.558,0.322 l 0,0 -0.414,0 c -0.342,0 -0.396,-0.07 -0.271,-0.376 l 0,0 3.593,-8.602 c 0.09,-0.197 0.236,-0.303 0.467,-0.303 l 0,0 0.342,0 c 0.198,0 0.36,0.106 0.45,0.303 l 0,0 3.591,8.621 c 0.125,0.287 0.055,0.357 -0.251,0.357 l 0,0 -0.432,0 z m -10.561,0 c -0.215,0 -0.321,-0.105 -0.321,-0.322 l 0,0 0,-8.586 c 0,-0.212 0.106,-0.322 0.321,-0.322 l 0,0 0.578,0 c 0.216,0 0.321,0.11 0.321,0.322 l 0,0 0,8.586 c 0,0.217 -0.105,0.322 -0.321,0.322 l 0,0 -0.578,0 z m -56.242,0 c -0.215,0 -0.322,-0.105 -0.322,-0.322 l 0,0 0,-8.586 c 0,-0.212 0.107,-0.322 0.322,-0.322 l 0,0 0.576,0 c 0.216,0 0.321,0.11 0.321,0.322 l 0,0 0,8.586 c 0,0.217 -0.105,0.322 -0.321,0.322 l 0,0 -0.576,0 z"
               style="fill:url(#linearGradient222);stroke:none"
               id="path228"
               inkscape:connector-curvature="0" /></g></g></g></g><g
       id="g230"><g
         id="g232"
         clip-path="url(#clipPath234)"><g
           id="g238"
           transform="translate(74.5669,85.0947)"><path
             d="m 0,0 1.699,0 c 0.675,0 1.004,0.303 1.004,0.926 0,0.623 -0.329,0.926 -1.004,0.926 L 0,1.852 0,0 Z m 1.726,2.574 c 1.099,0 1.75,-0.625 1.75,-1.648 0,-0.824 -0.375,-1.35 -1.126,-1.526 l 0.949,-1.605 c 0.126,-0.168 0.051,-0.27 -0.173,-0.27 l -0.353,0 c -0.148,0 -0.247,0.047 -0.321,0.172 l -0.926,1.629 -1.526,0 0,-1.629 c 0,-0.125 -0.075,-0.172 -0.2,-0.172 l -0.351,0 c -0.123,0 -0.2,0.047 -0.2,0.172 l 0,4.629 c 0,0.172 0.1,0.248 0.276,0.248 l 2.201,0 z M -2.828,0.051 c 0,-1.125 0.4,-2.102 1.202,-2.875 0.775,-0.805 1.751,-1.205 2.877,-1.205 1.099,0 2.048,0.4 2.825,1.205 0.777,0.801 1.176,1.75 1.176,2.875 0,1.127 -0.399,2.076 -1.176,2.875 C 3.299,3.703 2.35,4.1 1.251,4.1 0.125,4.1 -0.851,3.703 -1.626,2.926 -2.428,2.146 -2.828,1.178 -2.828,0.051 m -0.824,0 c 0,1.326 0.475,2.48 1.451,3.426 C -1.251,4.43 -0.102,4.9 1.224,4.9 2.55,4.9 3.676,4.43 4.625,3.477 5.575,2.531 6.053,1.377 6.053,0.051 6.053,-1.275 5.575,-2.428 4.649,-3.377 3.703,-4.326 2.55,-4.801 1.224,-4.801 c -1.326,0 -2.475,0.475 -3.425,1.424 -0.976,0.949 -1.451,2.102 -1.451,3.428"
             style="fill:#2e3092;fill-opacity:1;fill-rule:nonzero;stroke:none"
             id="path240"
             inkscape:connector-curvature="0" /></g><g
           id="g242"><g
             id="g244" /><g
             id="g262"><g
               clip-path="url(#clipPath246)"
               id="g264"
               style="opacity:0.80000299"><g
                 id="g266"><g
                   id="g268"><g
                     id="g270"><g
                       id="g272"><path
                         d="m 112.949,105.761 c -9.069,0 -16.426,7.355 -16.426,16.427 0,9.075 7.357,16.424 16.426,16.424 9.074,0 16.429,-7.349 16.429,-16.424 0,-9.072 -7.355,-16.427 -16.429,-16.427 m 0,58.509 c -23.244,0 -42.081,-18.844 -42.081,-42.082 0,-23.246 18.837,-42.08 42.081,-42.08 23.243,0 42.084,18.834 42.084,42.08 0,23.238 -18.841,42.082 -42.084,42.082"
                         style="fill:url(#linearGradient254);stroke:none"
                         id="path274"
                         inkscape:connector-curvature="0" /></g></g></g></g></g></g></g><g
           id="g276"><g
             id="g278" /><g
             id="g294"><g
               clip-path="url(#clipPath280)"
               id="g296"
               style="opacity:0.80000299"><g
                 id="g298"><g
                   id="g300"><g
                     id="g302"><g
                       id="g304"><path
                         d="m 178.88,105.702 c -9.069,0 -16.425,7.354 -16.425,16.428 0,9.074 7.356,16.428 16.425,16.428 9.073,0 16.425,-7.354 16.425,-16.428 0,-9.074 -7.352,-16.428 -16.425,-16.428 m 51.584,58.381 -21.536,0 c -3.958,0 -7.422,-2.112 -9.328,-5.265 -6.118,3.464 -13.181,5.452 -20.712,5.452 -23.239,0 -42.084,-18.844 -42.084,-42.082 0,-23.246 18.845,-42.08 42.084,-42.08 7.531,0 14.594,1.987 20.712,5.45 1.906,-3.159 5.37,-5.264 9.328,-5.264 l 21.536,0 c 6.014,0 10.894,4.875 10.894,10.893 l 0,62.009 c 0,6.013 -4.88,10.887 -10.894,10.887"
                         style="fill:url(#linearGradient288);stroke:none"
                         id="path306"
                         inkscape:connector-curvature="0" /></g></g></g></g></g></g></g><g
           id="g308"><g
             id="g310" /><g
             id="g326"><g
               clip-path="url(#clipPath312)"
               id="g328"
               style="opacity:0.80000299"><g
                 id="g330"><g
                   id="g332"><g
                     id="g334"><g
                       id="g336"><path
                         d="m 245.179,168.684 c 9.073,0 16.425,7.352 16.425,16.42 0,9.07 -7.352,16.43 -16.425,16.43 -9.07,0 -16.421,-7.36 -16.421,-16.43 0,-9.068 7.351,-16.42 16.421,-16.42 M 266.84,91.187 c 0,-6.018 -4.876,-10.893 -10.89,-10.893 l -21.539,0 c -6.017,0 -10.892,4.875 -10.892,10.893 l 0,62.009 c 0,6.013 4.875,10.887 10.892,10.887 l 21.539,0 c 6.014,0 10.89,-4.874 10.89,-10.887 l 0,-62.009 z"
                         style="fill:url(#linearGradient320);stroke:none"
                         id="path338"
                         inkscape:connector-curvature="0" /></g></g></g></g></g></g></g></g></g></g></svg>